<svg width="12" height="10" viewBox="0 0 12 10" fill="none" xmlns="http://www.w3.org/2000/svg">
<path d="M4.032 9.12C3.36 9.12 2.76 8.952 2.232 8.616C1.704 8.272 1.288 7.776 0.984 7.128C0.68 6.472 0.528 5.696 0.528 4.8C0.528 3.904 0.68 3.132 0.984 2.484C1.288 1.828 1.704 1.332 2.232 0.995999C2.76 0.651999 3.36 0.48 4.032 0.48C4.704 0.48 5.304 0.651999 5.832 0.995999C6.368 1.332 6.788 1.828 7.092 2.484C7.396 3.132 7.548 3.904 7.548 4.8C7.548 5.696 7.396 6.472 7.092 7.128C6.788 7.776 6.368 8.272 5.832 8.616C5.304 8.952 4.704 9.12 4.032 9.12ZM4.032 7.764C4.632 7.764 5.104 7.516 5.448 7.02C5.8 6.524 5.976 5.784 5.976 4.8C5.976 3.816 5.8 3.076 5.448 2.58C5.104 2.084 4.632 1.836 4.032 1.836C3.44 1.836 2.968 2.084 2.616 2.58C2.272 3.076 2.1 3.816 2.1 4.8C2.1 5.784 2.272 6.524 2.616 7.02C2.968 7.516 3.44 7.764 4.032 7.764ZM11.4476 0.599999L11.4476 9L9.88763 9L9.88763 1.908L8.11163 1.908L8.11163 0.599999L11.4476 0.599999Z" fill="#1B1C20"/>
</svg>
