<svg width="31" height="31" viewBox="0 0 31 31" fill="none" xmlns="http://www.w3.org/2000/svg">
<path d="M24.2534 15.3971L18.5771 10.9372C18.4293 10.8211 18.1898 10.8211 18.042 10.9372C17.8942 11.0534 17.8942 11.2415 18.042 11.3576L23.0723 15.31L6.57862 15.31C6.36945 15.31 6.2002 15.443 6.2002 15.6074C6.2002 15.7717 6.36945 15.9047 6.57862 15.9047L23.0723 15.9047L18.042 19.8571C17.8942 19.9732 17.8942 20.1614 18.042 20.2775C18.1159 20.3356 18.2128 20.3646 18.3096 20.3646C18.4064 20.3646 18.5032 20.3356 18.5772 20.2775L24.2534 15.8176C24.4012 15.7014 24.4012 15.5133 24.2534 15.3971Z" fill="#3FC6E5" stroke="white" stroke-width="0.6"/>
<rect x="0.5" y="0.5" width="30" height="30" rx="15" stroke="white"/>
</svg>
