<svg width="358" height="214" viewBox="0 0 358 214" fill="none" xmlns="http://www.w3.org/2000/svg">
<path d="M12.4219 4.58643L26.2105 17.6226L59.1538 17.6226L79.0669 39.104L124.271 39.104L209.301 123.477L247.598 123.477L271.349 99.6939L298.927 99.6939" stroke="white" stroke-opacity="0.27" stroke-miterlimit="10"/>
<path d="M0 24.5249L54.557 24.5249L77.5381 48.3075L121.202 48.3075L204.704 132.68L251.424 132.68" stroke="white" stroke-opacity="0.27" stroke-miterlimit="10"/>
<path d="M12.4219 37.1821L56.0859 37.1821L74.4707 56.7421L119.284 56.7421L132.498 70.5491L132.498 78.6032" stroke="white" stroke-opacity="0.27" stroke-miterlimit="10"/>
<path d="M191.102 85.5064L191.102 95.2864L212.359 115.422L245.107 115.422L270.386 91.2594L288.197 91.2594L296.24 82.0547L328.413 82.0547" stroke="white" stroke-opacity="0.27" stroke-miterlimit="10"/>
<path d="M0 78.6025L40.573 78.6025L52.0636 91.259L106.069 91.259" stroke="white" stroke-opacity="0.27" stroke-miterlimit="10"/>
<path d="M21.6162 88.3828L33.1067 88.3828L48.0444 103.916L161.226 103.916L199.719 143.036L298.929 143.036L320.37 120.024" stroke="white" stroke-opacity="0.27" stroke-miterlimit="10"/>
<path d="M18.7422 132.681L31.9563 132.681L48.043 115.71L142.265 115.71L149.734 124.201" stroke="white" stroke-opacity="0.27" stroke-miterlimit="10"/>
<path d="M0 109.093L155.674 109.093L196.844 151.664L305.43 151.664L324.964 130.379L352.541 130.379" stroke="white" stroke-opacity="0.27" stroke-miterlimit="10"/>
<path d="M50.9141 151.665L161.798 151.665L180.757 170.074L259.754 170.074L267.51 160.869L293.364 160.869" stroke="white" stroke-opacity="0.27" stroke-miterlimit="10"/>
<path d="M21.6162 158.568L160.077 158.568L179.611 178.128L311.752 178.128L325.541 164.321" stroke="white" stroke-opacity="0.27" stroke-miterlimit="10"/>
<path d="M1.35884e-06 181.005L12.4213 181.005L27.9335 165.472L157.776 165.472L176.276 184.456L320.367 184.456L334.731 170.074L345.072 170.074" stroke="white" stroke-opacity="0.27" stroke-miterlimit="10"/>
<path d="M41.7227 187.909L58.9584 187.909L72.4598 204.592L139.967 204.592L152.606 191.936" stroke="white" stroke-opacity="0.27" stroke-miterlimit="10"/>
<path d="M4.02618e-07 198.263L56.0853 198.263L67.5758 212.645L152.606 212.645L170.991 193.661L181.332 193.661" stroke="white" stroke-opacity="0.27" stroke-miterlimit="10"/>
<path d="M187.3 199.633C190.593 199.633 193.263 196.959 193.263 193.661C193.263 190.363 190.593 187.69 187.3 187.69C184.006 187.69 181.336 190.363 181.336 193.661C181.336 196.959 184.006 199.633 187.3 199.633Z" stroke="white" stroke-opacity="0.27" stroke-miterlimit="10"/>
<path d="M156.823 193.881C160.117 193.881 162.787 191.208 162.787 187.91C162.787 184.612 160.117 181.938 156.823 181.938C153.529 181.938 150.859 184.612 150.859 187.91C150.859 191.208 153.529 193.881 156.823 193.881Z" stroke="white" stroke-opacity="0.27" stroke-miterlimit="10"/>
<path d="M35.7732 193.66C39.0668 193.66 41.7367 190.987 41.7367 187.689C41.7367 184.391 39.0668 181.717 35.7732 181.717C32.4796 181.717 29.8096 184.391 29.8096 187.689C29.8096 190.987 32.4796 193.66 35.7732 193.66Z" stroke="white" stroke-opacity="0.27" stroke-miterlimit="10"/>
<path d="M19.1935 160.765C20.405 160.765 21.3871 159.781 21.3871 158.568C21.3871 157.355 20.405 156.372 19.1935 156.372C17.9821 156.372 17 157.355 17 158.568C17 159.781 17.9821 160.765 19.1935 160.765Z" stroke="white" stroke-opacity="0.27" stroke-miterlimit="10"/>
<path d="M16.4514 134.912C17.6628 134.912 18.6449 133.929 18.6449 132.716C18.6449 131.503 17.6628 130.52 16.4514 130.52C15.2399 130.52 14.2578 131.503 14.2578 132.716C14.2578 133.929 15.2399 134.912 16.4514 134.912Z" stroke="white" stroke-opacity="0.27" stroke-miterlimit="10"/>
<path d="M19.2209 90.5795C20.4324 90.5795 21.4144 89.5961 21.4144 88.383C21.4144 87.1699 20.4324 86.1865 19.2209 86.1865C18.0094 86.1865 17.0273 87.1699 17.0273 88.383C17.0273 89.5961 18.0094 90.5795 19.2209 90.5795Z" stroke="white" stroke-opacity="0.27" stroke-miterlimit="10"/>
<path d="M132.569 83.3529C133.78 83.3529 134.762 82.3695 134.762 81.1564C134.762 79.9434 133.78 78.96 132.569 78.96C131.357 78.96 130.375 79.9434 130.375 81.1564C130.375 82.3695 131.357 83.3529 132.569 83.3529Z" stroke="white" stroke-opacity="0.27" stroke-miterlimit="10"/>
<path d="M226.482 33.6698C227.693 33.6698 228.675 32.6864 228.675 31.4733C228.675 30.2603 227.693 29.2769 226.482 29.2769C225.27 29.2769 224.288 30.2603 224.288 31.4733C224.288 32.6864 225.27 33.6698 226.482 33.6698Z" stroke="white" stroke-opacity="0.27" stroke-miterlimit="10"/>
<path d="M318.065 66.0688C319.276 66.0688 320.258 65.0854 320.258 63.8723C320.258 62.6592 319.276 61.6758 318.065 61.6758C316.853 61.6758 315.871 62.6592 315.871 63.8723C315.871 65.0854 316.853 66.0688 318.065 66.0688Z" stroke="white" stroke-opacity="0.27" stroke-miterlimit="10"/>
<path d="M151.358 128.119C152.569 128.119 153.551 127.136 153.551 125.923C153.551 124.709 152.569 123.726 151.358 123.726C150.146 123.726 149.164 124.709 149.164 125.923C149.164 127.136 150.146 128.119 151.358 128.119Z" stroke="white" stroke-opacity="0.27" stroke-miterlimit="10"/>
<path d="M10.2482 39.3778C11.4597 39.3778 12.4418 38.3944 12.4418 37.1813C12.4418 35.9683 11.4597 34.9849 10.2482 34.9849C9.03677 34.9849 8.05469 35.9683 8.05469 37.1813C8.05469 38.3944 9.03677 39.3778 10.2482 39.3778Z" stroke="white" stroke-opacity="0.27" stroke-miterlimit="10"/>
<path d="M326.295 164.36C327.507 164.36 328.489 163.377 328.489 162.164C328.489 160.951 327.507 159.967 326.295 159.967C325.084 159.967 324.102 160.951 324.102 162.164C324.102 163.377 325.084 164.36 326.295 164.36Z" stroke="white" stroke-opacity="0.27" stroke-miterlimit="10"/>
<path d="M321.904 121.137C323.116 121.137 324.098 120.154 324.098 118.941C324.098 117.728 323.116 116.744 321.904 116.744C320.693 116.744 319.711 117.728 319.711 118.941C319.711 120.154 320.693 121.137 321.904 121.137Z" stroke="white" stroke-opacity="0.27" stroke-miterlimit="10"/>
<path d="M48.8107 153.928C50.0222 153.928 51.0043 152.944 51.0043 151.731C51.0043 150.518 50.0222 149.535 48.8107 149.535C47.5993 149.535 46.6172 150.518 46.6172 151.731C46.6172 152.944 47.5993 153.928 48.8107 153.928Z" fill="white" fill-opacity="0.27" stroke="white" stroke-opacity="0.27" stroke-miterlimit="10"/>
<path d="M108.032 93.5238C109.244 93.5238 110.226 92.5404 110.226 91.3273C110.226 90.1143 109.244 89.1309 108.032 89.1309C106.821 89.1309 105.839 90.1143 105.839 91.3273C105.839 92.5404 106.821 93.5238 108.032 93.5238Z" fill="white" fill-opacity="0.27" stroke="white" stroke-opacity="0.27" stroke-miterlimit="10"/>
<path d="M10.8459 5.25625C12.0574 5.25625 13.0394 4.27285 13.0394 3.05977C13.0394 1.84668 12.0574 0.863281 10.8459 0.863281C9.63443 0.863281 8.65234 1.84668 8.65234 3.05977C8.65234 4.27285 9.63443 5.25625 10.8459 5.25625Z" fill="white" fill-opacity="0.27" stroke="white" stroke-opacity="0.27" stroke-miterlimit="10"/>
<path d="M190.838 85.288C192.05 85.288 193.032 84.3046 193.032 83.0915C193.032 81.8784 192.05 80.895 190.838 80.895C189.627 80.895 188.645 81.8784 188.645 83.0915C188.645 84.3046 189.627 85.288 190.838 85.288Z" fill="white" fill-opacity="0.27" stroke="white" stroke-opacity="0.27" stroke-miterlimit="10"/>
<path d="M299.967 102.309C301.178 102.309 302.161 101.326 302.161 100.113C302.161 98.8999 301.178 97.9165 299.967 97.9165C298.756 97.9165 297.773 98.8999 297.773 100.113C297.773 101.326 298.756 102.309 299.967 102.309Z" fill="white" fill-opacity="0.27" stroke="white" stroke-opacity="0.27" stroke-miterlimit="10"/>
<path d="M330.604 84.6718C331.815 84.6718 332.797 83.6884 332.797 82.4753C332.797 81.2622 331.815 80.2788 330.604 80.2788C329.392 80.2788 328.41 81.2622 328.41 82.4753C328.41 83.6884 329.392 84.6718 330.604 84.6718Z" fill="white" fill-opacity="0.27" stroke="white" stroke-opacity="0.27" stroke-miterlimit="10"/>
<path d="M253.357 134.709C254.568 134.709 255.55 133.725 255.55 132.512C255.55 131.299 254.568 130.316 253.357 130.316C252.145 130.316 251.163 131.299 251.163 132.512C251.163 133.725 252.145 134.709 253.357 134.709Z" fill="white" fill-opacity="0.27" stroke="white" stroke-opacity="0.27" stroke-miterlimit="10"/>
<path d="M354.807 132.512C356.018 132.512 357 131.529 357 130.316C357 129.103 356.018 128.119 354.807 128.119C353.595 128.119 352.613 129.103 352.613 130.316C352.613 131.529 353.595 132.512 354.807 132.512Z" fill="white" fill-opacity="0.27" stroke="white" stroke-opacity="0.27" stroke-miterlimit="10"/>
<path d="M295.58 163.263C296.792 163.263 297.774 162.28 297.774 161.067C297.774 159.854 296.792 158.87 295.58 158.87C294.369 158.87 293.387 159.854 293.387 161.067C293.387 162.28 294.369 163.263 295.58 163.263Z" fill="white" fill-opacity="0.27" stroke="white" stroke-opacity="0.27" stroke-miterlimit="10"/>
<path d="M228.836 31.2114L257.39 31.2114L289.345 64.0262L315.773 64.0262" stroke="white" stroke-opacity="0.27" stroke-miterlimit="10"/>
<path d="M257.928 76.6826C260.826 64.2831 253.136 51.8793 240.753 48.9779C228.37 46.0765 215.983 53.7761 213.085 66.1756C210.188 78.5751 217.877 90.979 230.26 93.8805C242.643 96.7819 255.031 89.0821 257.928 76.6826Z" stroke="white" stroke-opacity="0.27" stroke-width="2" stroke-linecap="round" stroke-linejoin="round"/>
<path d="M250.223 74.909C252.129 66.7801 247.093 58.6435 238.975 56.7354C230.857 54.8273 222.731 59.8702 220.825 67.9991C218.92 76.128 223.956 84.2646 232.074 86.1727C240.192 88.0808 248.318 83.0379 250.223 74.909Z" stroke="white" stroke-opacity="0.27" stroke-width="2" stroke-linecap="round" stroke-linejoin="round"/>
<path d="M240.303 71.3757C240.306 72.3365 240.023 73.2764 239.492 74.0764C238.96 74.8764 238.204 75.5005 237.318 75.8698C236.432 76.2391 235.457 76.3368 234.516 76.1508C233.574 75.9647 232.709 75.5032 232.03 74.8246C231.35 74.146 230.888 73.2809 230.7 72.3388C230.511 71.3966 230.607 70.4197 230.973 69.5318C231.34 68.6439 231.962 67.8849 232.759 67.3509C233.557 66.8168 234.495 66.5317 235.454 66.5317C236.739 66.5317 237.97 67.0417 238.879 67.9498C239.788 68.8579 240.3 70.09 240.303 71.3757Z" stroke="white" stroke-opacity="0.27" stroke-width="2" stroke-linecap="round" stroke-linejoin="round"/>
</svg>
