<svg width="140" height="298" viewBox="0 0 140 298" fill="none" xmlns="http://www.w3.org/2000/svg">
<path d="M4.09375 287.666L14.9389 276.194L14.9389 248.788L32.81 232.221L32.81 194.615L103.002 123.876L103.002 92.0148L83.2167 72.2557L83.2167 49.3133" stroke="white" stroke-opacity="0.27" stroke-miterlimit="10"/>
<path d="M20.6826 298L20.6826 252.612L40.4681 233.494L40.4681 197.168L110.66 127.701L110.66 88.8323" stroke="white" stroke-opacity="0.27" stroke-miterlimit="10"/>
<path d="M31.2188 287.666L31.2188 251.34L47.4913 236.045L47.4913 198.764L58.9778 187.771L65.6783 187.771" stroke="white" stroke-opacity="0.27" stroke-miterlimit="10"/>
<path d="M71.4185 139.017L79.5548 139.017L96.3059 121.332L96.3059 94.0878L76.2046 73.0573L76.2046 58.2403L68.5469 51.5488L68.5469 24.7827" stroke="white" stroke-opacity="0.27" stroke-miterlimit="10"/>
<path d="M65.6758 298L65.6758 264.246L76.2051 254.687L76.2051 209.758" stroke="white" stroke-opacity="0.27" stroke-miterlimit="10"/>
<path d="M73.8076 280.016L73.8076 270.456L86.7299 258.029L86.7299 163.87L119.275 131.846L119.275 49.3108L100.131 31.4731" stroke="white" stroke-opacity="0.27" stroke-miterlimit="10"/>
<path d="M110.663 282.407L110.663 271.414L96.5439 258.031L96.5439 179.644L103.608 173.431" stroke="white" stroke-opacity="0.27" stroke-miterlimit="10"/>
<path d="M91.041 298L91.041 168.49L126.458 134.239L126.458 43.9036L108.749 27.6527L108.749 4.71035" stroke="white" stroke-opacity="0.27" stroke-miterlimit="10"/>
<path d="M126.46 255.643L126.46 163.395L141.775 147.622L141.775 81.9018L134.118 75.4493L134.118 53.9408" stroke="white" stroke-opacity="0.27" stroke-miterlimit="10"/>
<path d="M132.201 280.016L132.201 164.826L148.474 148.575L148.474 38.6426L136.987 27.1714" stroke="white" stroke-opacity="0.27" stroke-miterlimit="10"/>
<path d="M150.866 298L150.866 287.666L137.943 274.761L137.943 166.741L153.737 151.35L153.737 31.4764L141.772 19.5272L141.772 10.9238" stroke="white" stroke-opacity="0.27" stroke-miterlimit="10"/>
<path d="M134.027 282.033C134.027 281.025 133.209 280.208 132.199 280.208C131.19 280.208 130.372 281.025 130.372 282.033C130.372 283.04 131.19 283.857 132.199 283.857C133.209 283.857 134.027 283.04 134.027 282.033Z" stroke="white" stroke-opacity="0.27" stroke-miterlimit="10"/>
<path d="M112.519 284.313C112.519 283.305 111.701 282.488 110.692 282.488C109.682 282.488 108.864 283.305 108.864 284.313C108.864 285.321 109.682 286.138 110.692 286.138C111.701 286.138 112.519 285.321 112.519 284.313Z" stroke="white" stroke-opacity="0.27" stroke-miterlimit="10"/>
<path d="M75.6371 282.01C75.6371 281.002 74.8189 280.185 73.8097 280.185C72.8005 280.185 71.9824 281.002 71.9824 282.01C71.9824 283.017 72.8005 283.834 73.8097 283.834C74.8189 283.834 75.6371 283.017 75.6371 282.01Z" stroke="white" stroke-opacity="0.27" stroke-miterlimit="10"/>
<path d="M69.6283 187.712C69.6283 186.704 68.8101 185.887 67.8009 185.887C66.7918 185.887 65.9736 186.704 65.9736 187.712C65.9736 188.72 66.7918 189.537 67.8009 189.537C68.8101 189.537 69.6283 188.72 69.6283 187.712Z" stroke="white" stroke-opacity="0.27" stroke-miterlimit="10"/>
<path d="M28.2943 109.581C28.2943 108.574 27.4762 107.756 26.467 107.756C25.4578 107.756 24.6396 108.574 24.6396 109.581C24.6396 110.589 25.4578 111.406 26.467 111.406C27.4762 111.406 28.2943 110.589 28.2943 109.581Z" stroke="white" stroke-opacity="0.27" stroke-miterlimit="10"/>
<path d="M55.2455 33.3919C55.2455 32.3841 54.4273 31.567 53.4181 31.567C52.4089 31.567 51.5908 32.3841 51.5908 33.3919C51.5908 34.3998 52.4089 35.2168 53.4181 35.2168C54.4273 35.2168 55.2455 34.3998 55.2455 33.3919Z" stroke="white" stroke-opacity="0.27" stroke-miterlimit="10"/>
<path d="M106.868 172.081C106.868 171.073 106.049 170.256 105.04 170.256C104.031 170.256 103.213 171.073 103.213 172.081C103.213 173.089 104.031 173.906 105.04 173.906C106.049 173.906 106.868 173.089 106.868 172.081Z" stroke="white" stroke-opacity="0.27" stroke-miterlimit="10"/>
<path d="M33.0384 289.474C33.0384 288.466 32.2203 287.649 31.2111 287.649C30.2019 287.649 29.3838 288.466 29.3838 289.474C29.3838 290.482 30.2019 291.299 31.2111 291.299C32.2203 291.299 33.0384 290.482 33.0384 289.474Z" stroke="white" stroke-opacity="0.27" stroke-miterlimit="10"/>
<path d="M137.016 26.5448C137.016 25.5369 136.198 24.7199 135.189 24.7199C134.179 24.7199 133.361 25.5369 133.361 26.5448C133.361 27.5526 134.179 28.3696 135.189 28.3696C136.198 28.3696 137.016 27.5526 137.016 26.5448Z" stroke="white" stroke-opacity="0.27" stroke-miterlimit="10"/>
<path d="M101.062 30.1976C101.062 29.1897 100.244 28.3727 99.2345 28.3727C98.2253 28.3727 97.4072 29.1897 97.4072 30.1976C97.4072 31.2054 98.2253 32.0225 99.2345 32.0225C100.244 32.0225 101.062 31.2054 101.062 30.1976Z" stroke="white" stroke-opacity="0.27" stroke-miterlimit="10"/>
<path d="M128.34 257.393C128.34 256.385 127.522 255.568 126.513 255.568C125.504 255.568 124.686 256.385 124.686 257.393C124.686 258.401 125.504 259.218 126.513 259.218C127.522 259.218 128.34 258.401 128.34 257.393Z" fill="white" fill-opacity="0.27" stroke="white" stroke-opacity="0.27" stroke-miterlimit="10"/>
<path d="M78.0863 208.123C78.0863 207.116 77.2682 206.298 76.259 206.298C75.2498 206.298 74.4316 207.116 74.4316 208.123C74.4316 209.131 75.2498 209.948 76.259 209.948C77.2682 209.948 78.0863 209.131 78.0863 208.123Z" fill="white" fill-opacity="0.27" stroke="white" stroke-opacity="0.27" stroke-miterlimit="10"/>
<path d="M4.65465 288.977C4.65465 287.969 3.83653 287.152 2.82732 287.152C1.81812 287.152 1 287.969 1 288.977C1 289.985 1.81812 290.802 2.82732 290.802C3.83653 290.802 4.65465 289.985 4.65465 288.977Z" fill="white" fill-opacity="0.27" stroke="white" stroke-opacity="0.27" stroke-miterlimit="10"/>
<path d="M71.2347 139.236C71.2347 138.228 70.4166 137.411 69.4074 137.411C68.3982 137.411 67.5801 138.228 67.5801 139.236C67.5801 140.244 68.3982 141.061 69.4074 141.061C70.4166 141.061 71.2347 140.244 71.2347 139.236Z" fill="white" fill-opacity="0.27" stroke="white" stroke-opacity="0.27" stroke-miterlimit="10"/>
<path d="M85.3949 48.4476C85.3949 47.4397 84.5767 46.6227 83.5675 46.6227C82.5583 46.6227 81.7402 47.4397 81.7402 48.4476C81.7402 49.4554 82.5583 50.2725 83.5675 50.2725C84.5767 50.2725 85.3949 49.4554 85.3949 48.4476Z" fill="white" fill-opacity="0.27" stroke="white" stroke-opacity="0.27" stroke-miterlimit="10"/>
<path d="M70.724 22.9603C70.724 21.9524 69.9058 21.1354 68.8967 21.1354C67.8875 21.1354 67.0693 21.9524 67.0693 22.9603C67.0693 23.9681 67.8875 24.7852 68.8967 24.7852C69.9058 24.7852 70.724 23.9681 70.724 22.9603Z" fill="white" fill-opacity="0.27" stroke="white" stroke-opacity="0.27" stroke-miterlimit="10"/>
<path d="M112.351 87.2235C112.351 86.2156 111.533 85.3986 110.524 85.3986C109.514 85.3986 108.696 86.2156 108.696 87.2235C108.696 88.2313 109.514 89.0483 110.524 89.0483C111.533 89.0483 112.351 88.2313 112.351 87.2235Z" fill="white" fill-opacity="0.27" stroke="white" stroke-opacity="0.27" stroke-miterlimit="10"/>
<path d="M110.521 2.82502C110.521 1.81717 109.703 1.00015 108.694 1.00015C107.684 1.00015 106.866 1.81717 106.866 2.82502C106.866 3.83288 107.684 4.6499 108.694 4.6499C109.703 4.6499 110.521 3.83288 110.521 2.82502Z" fill="white" fill-opacity="0.27" stroke="white" stroke-opacity="0.27" stroke-miterlimit="10"/>
<path d="M136.104 52.097C136.104 51.0891 135.286 50.2721 134.277 50.2721C133.267 50.2721 132.449 51.0891 132.449 52.097C132.449 53.1048 133.267 53.9219 134.277 53.9219C135.286 53.9219 136.104 53.1048 136.104 52.097Z" fill="white" fill-opacity="0.27" stroke="white" stroke-opacity="0.27" stroke-miterlimit="10"/>
<path d="M26.2461 107.624L26.2461 83.8691L53.5457 57.2846L53.5457 35.2982" stroke="white" stroke-opacity="0.27" stroke-miterlimit="10"/>
<path d="M64.0788 83.4205C53.7632 81.0099 43.4442 87.407 41.0304 97.7088C38.6166 108.011 45.0221 118.316 55.3377 120.727C65.6532 123.137 75.9724 116.74 78.3862 106.438C80.8 96.1365 74.3943 85.8311 64.0788 83.4205Z" stroke="white" stroke-opacity="0.27" stroke-width="2" stroke-linecap="round" stroke-linejoin="round"/>
<path d="M62.6003 89.8311C55.8376 88.2458 49.0685 92.4356 47.4811 99.1892C45.8937 105.943 50.0891 112.703 56.8518 114.288C63.6144 115.874 70.3835 111.684 71.971 104.93C73.5584 98.1764 69.363 91.4164 62.6003 89.8311Z" stroke="white" stroke-opacity="0.27" stroke-width="2" stroke-linecap="round" stroke-linejoin="round"/>
<path d="M59.6617 98.0843C60.461 98.0824 61.243 98.3173 61.9085 98.7595C62.574 99.2016 63.0933 99.831 63.4005 100.568C63.7077 101.305 63.789 102.116 63.6342 102.899C63.4794 103.683 63.0955 104.402 62.5309 104.967C61.9664 105.533 61.2467 105.918 60.4629 106.074C59.679 106.231 58.8664 106.151 58.1277 105.846C57.389 105.541 56.7576 105.024 56.3133 104.361C55.869 103.697 55.6318 102.917 55.6318 102.118C55.6318 101.05 56.0561 100.025 56.8116 99.2692C57.5671 98.5129 58.592 98.0868 59.6617 98.0843Z" stroke="white" stroke-opacity="0.27" stroke-width="2" stroke-linecap="round" stroke-linejoin="round"/>
</svg>
