<svg width="170" height="40" viewBox="0 0 170 40" fill="none" xmlns="http://www.w3.org/2000/svg">
<g opacity="0.6">
<path fill-rule="evenodd" clip-rule="evenodd" d="M129.775 40C140.862 40 149.849 31.0457 149.849 20C149.849 8.95431 140.862 0 129.775 0C118.689 0 109.702 8.95431 109.702 20C109.702 31.0457 118.689 40 129.775 40ZM127.165 16.4706H123.977V17.4659C123.226 16.6046 122.17 16.1741 120.81 16.1741C119.407 16.1741 118.21 16.7177 117.218 17.8046C116.226 18.8777 115.73 20.1977 115.73 21.7646C115.73 23.3317 116.226 24.6588 117.218 25.7459C118.21 26.8188 119.407 27.3554 120.81 27.3554C122.17 27.3554 123.226 26.9246 123.977 26.0635V27.0588H127.165V16.4706ZM121.448 24.3483C120.697 24.3483 120.087 24.1154 119.62 23.6494C119.152 23.1835 118.918 22.5554 118.918 21.7646C118.918 20.9741 119.152 20.3459 119.62 19.88C120.087 19.4141 120.697 19.1812 121.448 19.1812C122.199 19.1812 122.808 19.4141 123.275 19.88C123.743 20.3459 123.977 20.9741 123.977 21.7646C123.977 22.5554 123.743 23.1835 123.275 23.6494C122.808 24.1154 122.199 24.3483 121.448 24.3483ZM129.504 12.631V27.0588H132.692V15.408L130.76 16.0152L132.692 14.0872V11.6L129.504 12.631ZM139.064 19.52H141.253V16.4706H139.064V13.5059L135.875 14.4588V16.4706H134.175V19.52H135.875V23.2683C135.875 24.8071 136.265 25.88 137.044 26.4871C137.824 27.08 139.227 27.2706 141.253 27.0588V24.1788C140.473 24.2212 139.914 24.1859 139.574 24.0729C139.234 23.96 139.064 23.6917 139.064 23.2683V19.52Z" fill="#424345"/>
<path fill-rule="evenodd" clip-rule="evenodd" d="M158.632 14.6857V12.3851L161.294 11.582V13.9287L158.632 14.6857ZM158.635 16.4038V27.0242H161.297L161.367 15.5933L158.635 16.4038ZM167.303 19.2821H169.635V16.7289H167.303V13.8462L164.641 14.6492V16.7289H162.846V19.2821H164.641V23.5649C164.641 24.9789 165.013 25.9603 165.755 26.5094C166.512 27.0585 167.805 27.2301 169.635 27.0242V24.6151C169.126 24.6425 168.699 24.6494 168.355 24.6356C168.011 24.6082 167.75 24.5121 167.571 24.3474C167.392 24.1827 167.303 23.9218 167.303 23.5649V19.2821Z" fill="#424345"/>
<path d="M154.972 22.9173C154.628 23.2605 154.216 23.4321 153.734 23.4321C153.253 23.4321 152.84 23.2605 152.496 22.9173C152.152 22.5741 151.98 22.1623 151.98 21.6819C151.98 21.2014 152.152 20.7896 152.496 20.4464C152.84 20.1032 153.253 19.9316 153.734 19.9316C154.216 19.9316 154.628 20.1032 154.972 20.4464C155.316 20.7896 155.488 21.2014 155.488 21.6819C155.488 22.1623 155.316 22.5741 154.972 22.9173Z" fill="#424345"/>
<path d="M7.76668 25.7877C5.63759 25.7877 3.87907 25.1085 2.49111 23.7499C1.10316 22.3913 0.40918 20.7158 0.40918 18.7232C0.40918 16.7177 1.10316 15.0422 2.49111 13.6965C3.87907 12.338 5.63759 11.6587 7.76668 11.6587C9.04682 11.6587 10.2259 11.9498 11.3039 12.5321C12.3954 13.1014 13.2444 13.8777 13.8508 14.861L11.4454 16.2002C11.0951 15.5921 10.5965 15.1198 9.94967 14.7834C9.30286 14.434 8.5752 14.2594 7.76668 14.2594C6.3922 14.2594 5.28049 14.6734 4.43155 15.5015C3.59609 16.3296 3.17835 17.4035 3.17835 18.7232C3.17835 20.03 3.59609 21.0975 4.43155 21.9255C5.28049 22.7536 6.3922 23.1677 7.76668 23.1677C8.5752 23.1677 9.30286 22.9995 9.94967 22.6631C10.61 22.3137 11.1085 21.8414 11.4454 21.2463L13.8508 22.5854C13.2444 23.5688 12.4022 24.3515 11.3242 24.9338C10.2461 25.5031 9.06031 25.7877 7.76668 25.7877ZM18.2084 17.4811C18.4509 16.86 18.8485 16.3943 19.4009 16.0837C19.9669 15.7732 20.5935 15.6179 21.2807 15.6179V18.4127C20.4857 18.3221 19.7716 18.4774 19.1382 18.8785C18.5184 19.2796 18.2084 19.9459 18.2084 20.8775V25.516H15.6009V15.812H18.2084V17.4811ZM24.6339 21.6926C24.9842 22.9089 25.9342 23.517 27.4839 23.517C28.481 23.517 29.2357 23.1935 29.7478 22.5466L31.8499 23.7111C30.8528 25.0955 29.3839 25.7877 27.4435 25.7877C25.7725 25.7877 24.4318 25.3025 23.4211 24.3321C22.4105 23.3617 21.9051 22.139 21.9051 20.664C21.9051 19.202 22.4038 17.9857 23.4009 17.0153C24.398 16.032 25.6783 15.5403 27.2413 15.5403C28.7236 15.5403 29.9432 16.032 30.8999 17.0153C31.8701 17.9987 32.3552 19.2149 32.3552 20.664C32.3552 20.9875 32.3215 21.3304 32.2542 21.6926H24.6339ZM24.5935 19.7518H29.7478C29.5996 19.092 29.2895 18.6003 28.818 18.2768C28.3597 17.9534 27.8342 17.7916 27.2413 17.7916C26.5406 17.7916 25.9613 17.9663 25.503 18.3157C25.0448 18.6521 24.7416 19.1308 24.5935 19.7518ZM41.7774 15.812H44.3848V25.516H41.7774V24.371C40.9959 25.3155 39.8976 25.7877 38.4827 25.7877C37.1353 25.7877 35.9763 25.2961 35.0061 24.3127C34.0494 23.3165 33.5709 22.1002 33.5709 20.664C33.5709 19.2278 34.0494 18.0181 35.0061 17.0347C35.9763 16.0384 37.1353 15.5403 38.4827 15.5403C39.8976 15.5403 40.9959 16.0126 41.7774 16.9571V15.812ZM36.9667 22.6436C37.4922 23.1483 38.1593 23.4006 38.9678 23.4006C39.7763 23.4006 40.4433 23.1483 40.9689 22.6436C41.5079 22.1261 41.7774 21.4662 41.7774 20.664C41.7774 19.8618 41.5079 19.2084 40.9689 18.7038C40.4433 18.1863 39.7763 17.9275 38.9678 17.9275C38.1593 17.9275 37.4922 18.1863 36.9667 18.7038C36.4412 19.2084 36.1784 19.8618 36.1784 20.664C36.1784 21.4662 36.4412 22.1261 36.9667 22.6436ZM52.5302 18.2186H50.2461V22.2555C50.2461 22.5919 50.3338 22.8377 50.5089 22.993C50.6841 23.1483 50.9402 23.2388 51.277 23.2647C51.6139 23.2776 52.0317 23.2712 52.5302 23.2453V25.516C50.7381 25.7101 49.4714 25.5484 48.7302 25.0308C48.0025 24.5133 47.6387 23.5882 47.6387 22.2555V18.2186H45.8801V15.812H47.6387V13.8518L50.2461 13.0949V15.812H52.5302V18.2186ZM56.2561 21.6926C56.6064 22.9089 57.5564 23.517 59.1061 23.517C60.1032 23.517 60.8579 23.1935 61.3699 22.5466L63.4721 23.7111C62.4749 25.0955 61.0061 25.7877 59.0656 25.7877C57.3947 25.7877 56.0539 25.3025 55.0433 24.3321C54.0326 23.3617 53.5273 22.139 53.5273 20.664C53.5273 19.202 54.0259 17.9857 55.0231 17.0153C56.0202 16.032 57.3004 15.5403 58.8635 15.5403C60.3457 15.5403 61.5654 16.032 62.5221 17.0153C63.4923 17.9987 63.9774 19.2149 63.9774 20.664C63.9774 20.9875 63.9436 21.3304 63.8763 21.6926H56.2561ZM56.2156 19.7518H61.3699C61.2217 19.092 60.9117 18.6003 60.4401 18.2768C59.9819 17.9534 59.4564 17.7916 58.8635 17.7916C58.1628 17.7916 57.5834 17.9663 57.1252 18.3157C56.667 18.6521 56.3638 19.1308 56.2156 19.7518ZM73.3793 11.9304H75.9868V25.516H73.3793V24.371C72.6113 25.3155 71.5198 25.7877 70.1049 25.7877C68.7439 25.7877 67.5782 25.2961 66.608 24.3127C65.6513 23.3165 65.1729 22.1002 65.1729 20.664C65.1729 19.2278 65.6513 18.0181 66.608 17.0347C67.5782 16.0384 68.7439 15.5403 70.1049 15.5403C71.5198 15.5403 72.6113 16.0126 73.3793 16.9571V11.9304ZM68.5687 22.6436C69.1077 23.1483 69.7814 23.4006 70.59 23.4006C71.3985 23.4006 72.0655 23.1483 72.591 22.6436C73.1166 22.1261 73.3793 21.4662 73.3793 20.664C73.3793 19.8618 73.1166 19.2084 72.591 18.7038C72.0655 18.1863 71.3985 17.9275 70.59 17.9275C69.7814 17.9275 69.1077 18.1863 68.5687 18.7038C68.0431 19.2084 67.7804 19.8618 67.7804 20.664C67.7804 21.4662 68.0431 22.1261 68.5687 22.6436ZM89.3066 15.5403C90.6676 15.5403 91.8266 16.0384 92.7833 17.0347C93.7535 18.0181 94.2386 19.2278 94.2386 20.664C94.2386 22.1002 93.7535 23.3165 92.7833 24.3127C91.8266 25.2961 90.6676 25.7877 89.3066 25.7877C87.8917 25.7877 86.8002 25.3155 86.0322 24.371V25.516H83.4247V11.9304H86.0322V16.9571C86.8002 16.0126 87.8917 15.5403 89.3066 15.5403ZM86.8205 22.6436C87.346 23.1483 88.013 23.4006 88.8215 23.4006C89.6301 23.4006 90.2971 23.1483 90.8226 22.6436C91.3617 22.1261 91.6311 21.4662 91.6311 20.664C91.6311 19.8618 91.3617 19.2084 90.8226 18.7038C90.2971 18.1863 89.6301 17.9275 88.8215 17.9275C88.013 17.9275 87.346 18.1863 86.8205 18.7038C86.2949 19.2084 86.0322 19.8618 86.0322 20.664C86.0322 21.4662 86.2949 22.1261 86.8205 22.6436ZM102.272 15.812H105.062L101.383 25.516C100.857 26.9134 100.156 27.9226 99.2806 28.5437C98.4182 29.1777 97.3402 29.4623 96.0466 29.3976V27.0687C96.7473 27.0817 97.2998 26.9392 97.704 26.6417C98.1218 26.3442 98.4519 25.8654 98.6945 25.2055L94.5508 15.812H97.4008L100.029 22.3331L102.272 15.812Z" fill="#424345"/>
</g>
</svg>
