<svg width="50" height="55" viewBox="0 0 50 55" fill="none" xmlns="http://www.w3.org/2000/svg">
<path d="M49.1095 18.0001C48.9111 16.9669 48.3146 16.0846 47.4293 15.5159L44.9114 13.898L44.7213 11.1892C44.5998 9.45733 43.6555 7.86309 42.1952 6.92433L39.2703 5.04423L37.8588 0.739514C37.7586 0.433899 37.5267 0.189299 37.2269 0.0728538C36.9273 -0.0434841 36.5911 -0.0196364 36.3108 0.138274C34.1528 1.35397 32.4601 3.18368 31.4158 5.42966L28.4598 11.7865C27.5762 13.6866 27.7113 15.8176 28.6536 17.5419L26.0712 20.4799H22.8937C22.3005 20.4799 21.8195 20.9608 21.8195 21.5541C21.8195 22.1474 22.3005 22.6283 22.8937 22.6283H26.5572C26.8661 22.6283 27.16 22.4953 27.364 22.2633L30.0136 19.2489C30.3708 19.5659 30.7681 19.8479 31.2044 20.0845L37.2321 23.3515V30.3975C37.2321 33.1408 35.7926 35.6471 33.4906 37.0424L34.5212 32.6092C35.0756 30.2239 33.5862 27.8323 31.2009 27.2779C30.0459 27.0093 28.8546 27.2068 27.8475 27.8338C26.8405 28.4609 26.1381 29.4426 25.8695 30.5981L24.7096 35.5877C24.5026 36.4785 24.5808 37.3701 24.8841 38.1667H16.0769C16.4116 37.3042 16.4812 36.3308 16.2143 35.3732L14.8387 30.4386C14.5202 29.2959 13.7757 28.3456 12.7425 27.7629C11.7091 27.18 10.5108 27.0347 9.36816 27.3532C8.2254 27.6717 7.27526 28.4162 6.69239 29.4494C6.10952 30.4826 5.96407 31.681 6.28257 32.8237L7.44552 36.9957L7.26108 37.3956C4.60346 36.1118 2.86978 33.3985 2.86978 30.3976C2.86978 26.1136 6.35498 22.6284 10.639 22.6284H13.2258C13.8191 22.6284 14.3 22.1475 14.3 21.5542C14.3 20.9609 13.8191 20.48 13.2258 20.48H10.639C9.69612 20.48 8.78368 20.6123 7.91904 20.8592C5.82582 20.1592 4.3247 18.2535 4.15143 16.0366C4.11899 15.6214 3.84947 15.2624 3.45996 15.1153C3.07045 14.9682 2.63088 15.0595 2.33214 15.3496C1.16553 16.4823 0.399617 17.9281 0.117206 19.5306C-0.282833 21.8003 0.354178 24.1083 1.82908 25.8463C1.1216 27.2102 0.721238 28.758 0.721238 30.3977C0.721238 34.2409 2.94938 37.7142 6.36131 39.3463L2.58898 47.5247C2.23094 48.0322 2.01965 48.6503 2.01965 49.3172V51.8829C2.01965 53.6017 3.41796 55 5.13671 55H13.7851C14.9106 55 15.8261 54.0844 15.8261 52.959C15.8261 50.3407 14.3286 48.067 12.146 46.9451L15.2041 40.3152H25.5856L28.7242 47.6992C28.4364 48.1711 28.2704 48.7251 28.2704 49.3171V51.8828C28.2704 53.6016 29.6687 54.9999 31.3875 54.9999H40.036C41.1615 54.9999 42.077 54.0843 42.077 52.9589C42.077 49.9554 40.1071 47.4043 37.3919 46.5268L34.2324 39.0934C37.3871 37.3634 39.3804 34.0447 39.3804 30.3975V24.4939C40.2503 24.8844 41.1718 25.0735 42.0851 25.0735C44.1686 25.0735 46.2086 24.0936 47.4908 22.2985L48.4687 20.9296C49.0804 20.0737 49.3079 19.0333 49.1095 18.0001ZM2.23309 19.9034C2.31065 19.4637 2.43859 19.0403 2.6138 18.6395C3.19957 19.9951 4.1683 21.1588 5.39323 21.9847C4.53031 22.5247 3.75591 23.1936 3.09741 23.9644C2.30238 22.7843 1.98097 21.3337 2.23309 19.9034ZM30.479 46.3355L28.1906 40.9517C28.4745 41.007 28.7599 41.0361 29.0439 41.0361C29.8639 41.0361 30.6698 40.8074 31.3832 40.3631C31.6726 40.1829 31.9359 39.9724 32.172 39.7379L34.9187 46.2H31.3876C31.0717 46.2 30.7667 46.2477 30.479 46.3355ZM26.8022 36.0742L27.9621 31.0846C28.1008 30.4881 28.4635 29.9812 28.9833 29.6575C29.503 29.3337 30.1179 29.2319 30.7144 29.3704C31.9458 29.6567 32.7147 30.8914 32.4285 32.1228L31.2686 37.1123C31.1299 37.7088 30.7672 38.2157 30.2474 38.5394C29.7275 38.8631 29.1128 38.9649 28.5162 38.8265H28.5163C27.2849 38.5402 26.516 37.3056 26.8022 36.0742ZM8.56368 30.5049C8.86456 29.9715 9.35516 29.5872 9.94512 29.4228C10.1497 29.3657 10.3575 29.3376 10.5643 29.3376C10.9537 29.3376 11.3386 29.4378 11.6871 29.6343C12.2204 29.9352 12.6048 30.4258 12.7692 31.0156L14.1448 35.9501C14.4842 37.168 13.7697 38.4348 12.5519 38.7744C11.334 39.1137 10.0672 38.3993 9.7277 37.1815L8.35216 32.247C8.1877 31.6569 8.26279 31.0383 8.56368 30.5049ZM13.6766 52.8516H5.13681C4.60271 52.8516 4.16819 52.417 4.16819 51.8829V49.3172C4.16819 48.7831 4.60271 48.3485 5.13681 48.3485H9.06738C11.5737 48.3484 13.6194 50.3586 13.6766 52.8516ZM9.06738 46.2H5.56596L8.63834 39.539C9.47257 40.4612 10.672 41.0073 11.9376 41.0073C12.1364 41.0073 12.337 40.9936 12.538 40.966L10.0882 46.2771C9.7552 46.2265 9.41435 46.2 9.06738 46.2ZM39.9274 52.8516H31.3876C30.8535 52.8516 30.419 52.417 30.419 51.8829V49.3172C30.419 48.7831 30.8535 48.3485 31.3876 48.3485H35.3182C37.8245 48.3484 39.8703 50.3586 39.9274 52.8516ZM46.9996 18.4051C47.0861 18.855 46.987 19.308 46.7207 19.6808L46.576 19.8834L44.6882 18.8348C44.5185 18.7405 44.4571 18.5257 44.5514 18.3559L45.4255 16.7822L46.268 17.3235C46.6534 17.5711 46.9133 17.9553 46.9996 18.4051ZM42.5783 11.3395L42.6564 12.4527L39.1009 10.1753L39.2587 7.59056L41.0336 8.73148C41.9264 9.30555 42.5039 10.2805 42.5783 11.3395ZM39.9581 22.3853L32.2281 18.1958C30.2668 17.1327 29.4672 14.7154 30.4079 12.6926L33.3639 6.33565C34.0291 4.90512 35.0161 3.68126 36.2539 2.74025L37.2247 5.70036L36.918 10.6743C36.8943 11.0631 37.0828 11.4342 37.4108 11.6443L43.6143 15.6184L42.6732 17.3128C42.0038 18.5182 42.4398 20.0434 43.6452 20.713L45.2648 21.6126C43.8844 22.9931 41.7234 23.3419 39.9581 22.3853Z" fill="white"/>
<path d="M18.0596 22.6287C18.6528 22.6287 19.1338 22.1477 19.1338 21.5544C19.1338 20.9612 18.6528 20.4802 18.0596 20.4802C17.4663 20.4802 16.9854 20.9612 16.9854 21.5544C16.9854 22.1477 17.4663 22.6287 18.0596 22.6287Z" fill="white"/>
</svg>
