<svg width="27" height="26" viewBox="0 0 27 26" fill="none" xmlns="http://www.w3.org/2000/svg">
<path d="M23.4197 0H4.42692C2.49198 0 0.92334 1.56857 0.92334 3.50355V22.4963C0.92334 24.4313 2.49192 25.9999 4.42692 25.9999H13.7941L13.81 16.7089H11.3962C11.0825 16.7089 10.8279 16.4553 10.8267 16.1416L10.8152 13.1467C10.8139 12.8313 11.0693 12.575 11.3847 12.575H13.7941V9.68121C13.7941 6.32299 15.8451 4.49442 18.8409 4.49442H21.2992C21.6137 4.49442 21.8687 4.7494 21.8687 5.06398V7.58926C21.8687 7.90371 21.6139 8.15863 21.2995 8.15882L19.7909 8.15952C18.1617 8.15952 17.8462 8.93369 17.8462 10.0698V12.5751H21.4261C21.7672 12.5751 22.0319 12.8729 21.9917 13.2117L21.6367 16.2065C21.6027 16.4931 21.3597 16.7091 21.0712 16.7091H17.8622L17.8462 26H23.4198C25.3548 26 26.9233 24.4314 26.9233 22.4965V3.50355C26.9233 1.56857 25.3547 0 23.4197 0Z" fill="white"/>
</svg>
