<svg width="275" height="73" viewBox="0 0 275 73" fill="none" xmlns="http://www.w3.org/2000/svg">
<path d="M88.5605 54.1936L88.5586 54.1929C87.2485 53.6877 86.0466 53.215 85.169 52.5284C84.3025 51.8505 83.7557 50.9663 83.7557 49.6232C83.7557 48.3395 84.2469 47.3324 85.1156 46.6427C85.9886 45.9497 87.257 45.5663 88.8256 45.5663C90.5171 45.5663 91.8945 46.0167 92.8459 46.7874C93.7945 47.5558 94.3298 48.6501 94.3298 49.9661V50.3091C94.3298 50.3776 94.3076 50.4232 94.2794 50.4513C94.2512 50.4794 94.2054 50.5017 94.1365 50.5017H92.6484C92.5721 50.5017 92.5237 50.4806 92.497 50.4577C92.4728 50.437 92.4551 50.4057 92.4551 50.3548V50.0803C92.4551 49.2706 92.1211 48.5364 91.4822 48.0073C90.8452 47.4798 89.9156 47.1642 88.7337 47.1642C87.7658 47.1642 86.985 47.3675 86.4427 47.7775C85.8941 48.1922 85.6076 48.805 85.6076 49.5775C85.6076 49.9807 85.6863 50.3253 85.8545 50.6301C86.0224 50.9341 86.2739 51.1886 86.6044 51.4205C87.2583 51.8794 88.2517 52.269 89.5957 52.781C90.8702 53.274 92.0902 53.764 92.9938 54.4709C93.8882 55.1706 94.4671 56.0783 94.4671 57.419C94.4671 58.6785 93.9654 59.7265 93.0494 60.4628C92.1301 61.2017 90.7815 61.6358 89.0772 61.6358C87.3726 61.6358 85.989 61.2017 85.035 60.4505C84.0844 59.702 83.5499 58.6312 83.5499 57.3277V56.7789C83.5499 56.7103 83.5722 56.6645 83.6003 56.6364C83.6285 56.6082 83.6742 56.5859 83.743 56.5859H85.2081C85.2772 56.5859 85.323 56.6082 85.3511 56.6364C85.3793 56.6645 85.4016 56.7102 85.4016 56.7789V57.2134C85.4016 58.0185 85.7757 58.7302 86.4455 59.2364C87.1129 59.7407 88.0685 60.0383 89.2372 60.0383C90.3464 60.0383 91.1799 59.7761 91.7389 59.3184C92.3015 58.8578 92.5693 58.2128 92.5693 57.4875C92.5693 57.1046 92.4868 56.7686 92.315 56.4643C92.1439 56.1614 91.8889 55.8978 91.5555 55.6521C90.8935 55.1644 89.8962 54.7292 88.5605 54.1936Z" fill="white" stroke="#3091C5" stroke-width="0.3"/>
<path d="M97.5382 56.3211V50.8799C97.5382 49.281 98.0915 47.9555 99.0491 47.0296C100.007 46.1033 101.381 45.5658 103.042 45.5658C104.715 45.5658 106.095 46.1035 107.056 47.0298C108.016 47.9557 108.57 49.281 108.57 50.8799V56.3211C108.57 57.9316 108.016 59.2627 107.056 60.1913C106.095 61.1203 104.715 61.658 103.042 61.658C101.381 61.658 100.007 61.1205 99.0492 60.1914C98.0917 59.2628 97.5382 57.9316 97.5382 56.3211ZM106.672 56.4128V50.8571C106.672 49.7607 106.311 48.8351 105.67 48.183C105.029 47.5307 104.119 47.1637 103.042 47.1637C101.977 47.1637 101.072 47.531 100.434 48.1833C99.7964 48.8353 99.4358 49.7607 99.4358 50.8571V56.4128C99.4358 57.4983 99.7967 58.4125 100.435 59.0559C101.073 59.6994 101.977 60.0605 103.042 60.0605C104.118 60.0605 105.028 59.6997 105.67 59.0562C106.311 58.4127 106.672 57.4983 106.672 56.4128Z" fill="white" stroke="#3091C5" stroke-width="0.3"/>
<path d="M112.142 61.2608V45.9434C112.142 45.8746 112.164 45.829 112.192 45.8009C112.22 45.7729 112.266 45.7506 112.335 45.7506H113.846C113.915 45.7506 113.961 45.7729 113.989 45.801C114.017 45.829 114.039 45.8746 114.039 45.9434V59.592C114.039 59.6603 114.063 59.729 114.115 59.781C114.167 59.833 114.236 59.8563 114.304 59.8563H122.065C122.133 59.8563 122.179 59.8786 122.207 59.9067C122.235 59.9348 122.258 59.9805 122.258 60.0491V61.2608C122.258 61.3297 122.235 61.3755 122.207 61.4036C122.179 61.4317 122.133 61.454 122.065 61.454H112.335C112.266 61.454 112.22 61.4317 112.192 61.4036C112.164 61.3755 112.142 61.3297 112.142 61.2608Z" fill="white" stroke="#3091C5" stroke-width="0.3"/>
<path d="M124.873 56.5286V45.9434C124.873 45.8746 124.895 45.829 124.923 45.801C124.952 45.7729 124.997 45.7506 125.067 45.7506H126.578C126.647 45.7506 126.692 45.7729 126.72 45.8009C126.749 45.829 126.771 45.8746 126.771 45.9434V56.5744C126.771 57.5935 127.128 58.4626 127.761 59.0768C128.394 59.6907 129.291 60.0393 130.355 60.0393C131.407 60.0393 132.299 59.6904 132.929 59.0765C133.559 58.4624 133.916 57.5935 133.916 56.5744V45.9434C133.916 45.8747 133.938 45.8291 133.966 45.801C133.994 45.7729 134.04 45.7506 134.109 45.7506H135.62C135.689 45.7506 135.735 45.7729 135.763 45.801C135.791 45.8292 135.814 45.8748 135.814 45.9434V56.5286C135.814 58.0689 135.267 59.3423 134.318 60.2313C133.369 61.1212 132.006 61.6369 130.355 61.6369C128.703 61.6369 127.334 61.1212 126.379 60.2311C125.425 59.3418 124.873 58.0684 124.873 56.5286Z" fill="white" stroke="#3091C5" stroke-width="0.3"/>
<path d="M150.041 45.9434V47.1778C150.041 47.2467 150.019 47.2923 149.991 47.3204C149.963 47.3485 149.917 47.3708 149.848 47.3708H145.59C145.521 47.3708 145.452 47.3942 145.4 47.4462C145.348 47.4982 145.325 47.5668 145.325 47.6351V61.2608C145.325 61.3297 145.303 61.3754 145.275 61.4036C145.247 61.4317 145.201 61.454 145.132 61.454H143.621C143.552 61.454 143.506 61.4317 143.478 61.4035C143.45 61.3754 143.427 61.3297 143.427 61.2608V47.6351C143.427 47.5669 143.404 47.4982 143.352 47.4462C143.3 47.3942 143.231 47.3708 143.163 47.3708H139.111C139.042 47.3708 138.996 47.3485 138.968 47.3204C138.94 47.2923 138.918 47.2467 138.918 47.1778V45.9434C138.918 45.8746 138.94 45.829 138.968 45.801C138.996 45.7729 139.042 45.7506 139.111 45.7506H149.848C149.917 45.7506 149.963 45.7729 149.991 45.801C150.019 45.829 150.041 45.8746 150.041 45.9434Z" fill="white" stroke="#3091C5" stroke-width="0.3"/>
<path d="M153.202 61.2608V45.9434C153.202 45.8746 153.224 45.829 153.252 45.801C153.28 45.7729 153.326 45.7506 153.395 45.7506H154.906C154.975 45.7506 155.021 45.7729 155.049 45.8009C155.077 45.829 155.099 45.8746 155.099 45.9434V61.2608C155.099 61.3297 155.077 61.3755 155.049 61.4036C155.021 61.4317 154.975 61.454 154.906 61.454H153.395C153.326 61.454 153.28 61.4317 153.252 61.4035C153.224 61.3754 153.202 61.3297 153.202 61.2608Z" fill="white" stroke="#3091C5" stroke-width="0.3"/>
<path d="M158.639 56.3211V50.8799C158.639 49.281 159.193 47.9555 160.15 47.0296C161.108 46.1033 162.482 45.5658 164.144 45.5658C165.816 45.5658 167.197 46.1035 168.157 47.0298C169.118 47.9557 169.671 49.281 169.671 50.8799V56.3211C169.671 57.9316 169.118 59.2627 168.157 60.1913C167.196 61.1203 165.816 61.658 164.144 61.658C162.482 61.658 161.108 61.1205 160.15 60.1914C159.193 59.2628 158.639 57.9316 158.639 56.3211ZM167.774 56.4128V50.8571C167.774 49.7607 167.413 48.8351 166.772 48.183C166.13 47.5307 165.22 47.1637 164.144 47.1637C163.078 47.1637 162.173 47.531 161.535 48.1833C160.898 48.8353 160.537 49.7607 160.537 50.8571V56.4128C160.537 57.4983 160.898 58.4125 161.536 59.0559C162.174 59.6994 163.079 60.0605 164.144 60.0605C165.219 60.0605 166.13 59.6997 166.771 59.0562C167.412 58.4127 167.774 57.4983 167.774 56.4128Z" fill="white" stroke="#3091C5" stroke-width="0.3"/>
<path d="M175.183 45.9034L175.183 45.9035L175.186 45.9078L182.188 57.2201C182.229 57.2969 182.323 57.3808 182.447 57.3438C182.568 57.3076 182.606 57.1871 182.606 57.1V45.9434C182.606 45.8746 182.628 45.829 182.656 45.801C182.684 45.7729 182.73 45.7506 182.799 45.7506H184.31C184.379 45.7506 184.425 45.7729 184.453 45.801C184.481 45.829 184.503 45.8746 184.503 45.9434V61.2608C184.503 61.3297 184.481 61.3755 184.453 61.4036C184.425 61.4317 184.379 61.454 184.31 61.454H182.822C182.749 61.454 182.695 61.4404 182.653 61.4177C182.612 61.3955 182.574 61.3599 182.541 61.3011L182.541 61.3011L182.538 61.2966L175.535 49.916C175.494 49.8392 175.401 49.7547 175.276 49.7918C175.155 49.828 175.117 49.9486 175.117 50.0356L175.117 50.0359L175.14 61.2608C175.14 61.2608 175.14 61.2608 175.14 61.2609C175.14 61.3298 175.118 61.3755 175.09 61.4036C175.062 61.4317 175.016 61.454 174.947 61.454H173.436C173.367 61.454 173.321 61.4317 173.293 61.4034C173.265 61.3752 173.242 61.3294 173.242 61.2608V45.9434C173.242 45.8749 173.265 45.8292 173.293 45.8011C173.321 45.7728 173.367 45.7506 173.436 45.7506H174.901C174.974 45.7506 175.029 45.7642 175.07 45.7868C175.112 45.809 175.15 45.8446 175.183 45.9034Z" fill="white" stroke="#3091C5" stroke-width="0.3"/>
<path d="M192.819 54.1931L192.817 54.1924C191.507 53.6872 190.305 53.2145 189.428 52.5279C188.561 51.8499 188.014 50.9658 188.014 49.6227C188.014 48.339 188.506 47.3319 189.374 46.6422C190.247 45.9492 191.516 45.5658 193.084 45.5658C194.776 45.5658 196.153 46.0163 197.105 46.7869C198.053 47.5553 198.588 48.6496 198.588 49.9656V50.3086C198.588 50.3771 198.566 50.4227 198.538 50.4507C198.51 50.4788 198.464 50.5012 198.395 50.5012H196.907C196.831 50.5012 196.782 50.4801 196.756 50.4572C196.731 50.4365 196.714 50.4052 196.714 50.3543V50.0798C196.714 49.2701 196.38 48.5359 195.741 48.0068C195.104 47.4793 194.174 47.1637 192.992 47.1637C192.024 47.1637 191.244 47.367 190.702 47.777C190.153 48.1918 189.867 48.8045 189.867 49.577C189.867 49.9802 189.945 50.3248 190.114 50.6296C190.281 50.9336 190.533 51.1881 190.863 51.42C191.517 51.8789 192.51 52.2685 193.855 52.7804C195.129 53.2735 196.349 53.7635 197.252 54.4704C198.147 55.1701 198.726 56.0779 198.726 57.4185C198.726 58.678 198.224 59.726 197.308 60.4623C196.389 61.2012 195.04 61.6353 193.336 61.6353C191.632 61.6353 190.248 61.2011 189.294 60.45C188.343 59.7015 187.808 58.6307 187.808 57.3272V56.7784C187.808 56.71 187.831 56.6643 187.859 56.636C187.887 56.6076 187.933 56.5854 188.002 56.5854H189.467C189.536 56.5854 189.582 56.6077 189.61 56.6359C189.638 56.6641 189.66 56.7098 189.66 56.7784V57.2129C189.66 58.018 190.035 58.7297 190.704 59.2359C191.372 59.7402 192.327 60.0378 193.496 60.0378C194.605 60.0378 195.439 59.7755 195.998 59.3179C196.56 58.8573 196.828 58.2123 196.828 57.487C196.828 57.1041 196.745 56.7681 196.574 56.4638C196.403 56.1609 196.148 55.8973 195.814 55.6516C195.152 55.1639 194.155 54.7287 192.819 54.1931Z" fill="white" stroke="#3091C5" stroke-width="0.3"/>
<path d="M206.603 56.5271V50.6744C206.603 49.1223 207.15 47.8488 208.095 46.9628C209.041 46.0759 210.399 45.5658 212.039 45.5658C213.679 45.5658 215.032 46.0814 215.973 46.9358C216.913 47.7895 217.452 48.989 217.452 50.3771V50.5141C217.452 50.583 217.429 50.6287 217.401 50.6567C217.373 50.6848 217.327 50.7071 217.258 50.7071H215.747C215.664 50.7071 215.61 50.6884 215.581 50.6694C215.557 50.6531 215.554 50.6399 215.554 50.6286V50.4229C215.554 49.4814 215.207 48.6688 214.588 48.0924C213.969 47.5167 213.089 47.1863 212.039 47.1863C210.989 47.1863 210.102 47.5168 209.477 48.1169C208.851 48.7177 208.501 49.5761 208.501 50.6059V56.5956C208.501 57.6274 208.87 58.4861 209.516 59.086C210.16 59.6848 211.069 60.0149 212.13 60.0149C213.153 60.0149 214.01 59.7332 214.614 59.1969C215.22 58.6587 215.554 57.8782 215.554 56.9156V55.1782C215.554 55.1099 215.531 55.0412 215.479 54.9893C215.427 54.9373 215.358 54.9139 215.29 54.9139H212.336C212.267 54.9139 212.222 54.8915 212.193 54.8634C212.165 54.8352 212.143 54.7895 212.143 54.7209V53.5322C212.143 53.4633 212.165 53.4176 212.193 53.3896C212.221 53.3615 212.267 53.3392 212.336 53.3392H217.258C217.327 53.3392 217.373 53.3615 217.401 53.3896C217.429 53.4177 217.452 53.4633 217.452 53.5322V56.3211C217.452 58.0725 216.907 59.3956 215.971 60.2817C215.032 61.169 213.682 61.6353 212.039 61.6353C210.399 61.6353 209.042 61.1198 208.095 60.2299C207.15 59.3409 206.603 58.0673 206.603 56.5271Z" fill="white" stroke="#3091C5" stroke-width="0.3"/>
<path d="M229.707 61.2924L229.707 61.2923L229.705 61.2879L226.546 54.5206L226.546 54.5206L226.545 54.5179C226.518 54.4632 226.472 54.4222 226.433 54.3963C226.396 54.3715 226.338 54.3425 226.273 54.3425H223.045C222.976 54.3425 222.908 54.366 222.856 54.4176C222.804 54.4693 222.78 54.5379 222.78 54.6068V61.2597C222.78 61.3286 222.758 61.3744 222.73 61.4025C222.702 61.4307 222.656 61.4529 222.587 61.4529H221.076C221.007 61.4529 220.961 61.4306 220.933 61.4024C220.905 61.3743 220.882 61.3285 220.882 61.2597V45.9195C220.882 45.8506 220.905 45.805 220.933 45.7769C220.961 45.7487 221.007 45.7264 221.076 45.7264H227.12C228.471 45.7264 229.581 46.1719 230.353 46.9375C231.125 47.703 231.571 48.8002 231.571 50.126C231.571 52.1863 230.402 53.6795 228.547 54.1646L228.547 54.1643L228.537 54.1675C228.481 54.1863 228.418 54.2232 228.382 54.2942C228.347 54.3652 228.355 54.4382 228.374 54.4943L228.377 54.5035L228.381 54.5122L231.631 61.2546C231.677 61.3556 231.66 61.3992 231.652 61.4105C231.645 61.422 231.614 61.4529 231.516 61.4529H229.959C229.834 61.4529 229.752 61.3958 229.707 61.2924ZM222.78 47.5882V52.6636C222.78 52.7325 222.804 52.8011 222.856 52.8528C222.908 52.9044 222.976 52.9279 223.045 52.9279H226.845C227.681 52.9279 228.39 52.6472 228.891 52.1532C229.391 51.659 229.673 50.9618 229.673 50.1488C229.673 49.3143 229.392 48.6056 228.891 48.1051C228.39 47.6047 227.681 47.3239 226.845 47.3239H223.045C222.976 47.3239 222.908 47.3474 222.856 47.399C222.804 47.4507 222.78 47.5193 222.78 47.5882Z" fill="white" stroke="#3091C5" stroke-width="0.3"/>
<path d="M234.676 56.3211V50.8799C234.676 49.281 235.23 47.9555 236.187 47.0296C237.145 46.1033 238.519 45.5658 240.181 45.5658C241.854 45.5658 243.234 46.1035 244.194 47.0298C245.155 47.9557 245.708 49.2811 245.708 50.8799V56.3211C245.708 57.9316 245.155 59.2627 244.194 60.1913C243.233 61.1203 241.854 61.658 240.181 61.658C238.519 61.658 237.145 61.1205 236.187 60.1914C235.23 59.2628 234.676 57.9316 234.676 56.3211ZM243.811 56.4128V50.8571C243.811 49.7607 243.45 48.8351 242.809 48.183C242.167 47.5307 241.257 47.1637 240.181 47.1637C239.115 47.1637 238.21 47.531 237.572 48.1833C236.935 48.8353 236.574 49.7607 236.574 50.8571V56.4128C236.574 57.4983 236.935 58.4125 237.573 59.0559C238.211 59.6994 239.116 60.0605 240.181 60.0605C241.256 60.0605 242.167 59.6997 242.808 59.0562C243.449 58.4127 243.811 57.4983 243.811 56.4128Z" fill="white" stroke="#3091C5" stroke-width="0.3"/>
<path d="M249.152 56.5286V45.9434C249.152 45.8747 249.174 45.8291 249.202 45.801C249.231 45.7729 249.276 45.7506 249.345 45.7506H250.856C250.925 45.7506 250.971 45.7729 250.999 45.801C251.027 45.829 251.05 45.8746 251.05 45.9434V56.5744C251.05 57.5935 251.406 58.4626 252.04 59.0768C252.672 59.6907 253.57 60.0393 254.633 60.0393C255.686 60.0393 256.578 59.6904 257.208 59.0765C257.838 58.4624 258.195 57.5935 258.195 56.5744V45.9434C258.195 45.8746 258.217 45.829 258.245 45.801C258.273 45.7729 258.319 45.7506 258.388 45.7506H259.899C259.968 45.7506 260.014 45.7729 260.042 45.801C260.07 45.829 260.092 45.8746 260.092 45.9434V56.5286C260.092 58.0689 259.546 59.3423 258.597 60.2313C257.648 61.1212 256.285 61.6369 254.633 61.6369C252.982 61.6369 251.613 61.1212 250.658 60.2311C249.704 59.3418 249.152 58.0684 249.152 56.5286Z" fill="white" stroke="#3091C5" stroke-width="0.3"/>
<path d="M274.622 50.2173C274.622 51.5644 274.154 52.6666 273.349 53.4323C272.543 54.1988 271.386 54.6399 269.987 54.6399H265.981C265.913 54.6399 265.844 54.6634 265.792 54.7151C265.74 54.7668 265.717 54.8354 265.717 54.9042V61.2597C265.717 61.3286 265.694 61.3743 265.666 61.4024C265.638 61.4306 265.592 61.4529 265.523 61.4529H264.012C263.943 61.4529 263.897 61.4306 263.869 61.4025C263.841 61.3744 263.819 61.3286 263.819 61.2597V45.9195C263.819 45.8505 263.841 45.8049 263.869 45.7768C263.897 45.7487 263.943 45.7264 264.012 45.7264H270.079C271.454 45.7264 272.587 46.1778 273.376 46.9577C274.165 47.7375 274.622 48.8574 274.622 50.2173ZM272.724 50.2633C272.724 49.3944 272.431 48.6571 271.91 48.1366C271.389 47.6162 270.651 47.3239 269.781 47.3239H265.981C265.913 47.3239 265.844 47.3475 265.792 47.3992C265.74 47.4509 265.717 47.5195 265.717 47.5882V52.8924C265.717 52.9611 265.74 53.0296 265.792 53.0814C265.844 53.1331 265.913 53.1566 265.981 53.1566H269.781C270.65 53.1566 271.388 52.8707 271.909 52.3593C272.431 51.8475 272.724 51.1213 272.724 50.2633Z" fill="white" stroke="#3091C5" stroke-width="0.3"/>
<path d="M97.1133 20.1459L97.1133 20.1458L97.1094 20.1462C96.9227 20.1632 96.7789 20.1453 96.6881 20.1162C96.6509 20.1044 96.6273 20.0921 96.6139 20.0832V19.8932C96.6139 18.5783 96.1712 17.4681 95.3835 16.6863C94.5959 15.9045 93.4752 15.4629 92.1409 15.4629C90.789 15.4629 89.6592 15.9042 88.8668 16.686C88.0743 17.4679 87.6316 18.5783 87.6316 19.8932V28.71C87.6316 30.0073 88.0747 31.1086 88.8672 31.8857C89.6594 32.6626 90.789 33.1039 92.1409 33.1039C93.4752 33.1039 94.5957 32.6623 95.3832 31.8854C96.1708 31.1084 96.6139 30.0072 96.6139 28.71C96.6139 28.6291 96.6464 28.5663 96.7097 28.5224C96.7773 28.4754 96.8943 28.441 97.073 28.4572L97.073 28.4573L97.0796 28.4577L100.995 28.6402C101.179 28.6586 101.322 28.6761 101.419 28.7002C101.446 28.707 101.465 28.7135 101.479 28.7188V28.8564C101.479 31.3781 100.542 33.4674 98.9142 34.9277C97.2845 36.3893 94.9505 37.2308 92.1409 37.2308C89.2961 37.2308 86.9539 36.3535 85.3243 34.8292C83.6956 33.3057 82.7662 31.1245 82.7662 28.4906V20.0396C82.7662 17.4059 83.6955 15.234 85.324 13.7197C86.9535 12.2044 89.2957 11.336 92.1409 11.336C94.9509 11.336 97.2851 12.1686 98.9147 13.6168C100.543 15.0634 101.479 17.1343 101.479 19.6371C101.479 19.6883 101.457 19.7369 101.389 19.7831C101.317 19.8322 101.198 19.8731 101.031 19.8901L97.1133 20.1459Z" fill="white" stroke="#3091C5" stroke-width="0.3"/>
<path d="M123.39 36.4232L123.389 36.4233L123.393 36.4302C123.488 36.6042 123.479 36.728 123.437 36.7992C123.395 36.8697 123.292 36.94 123.085 36.94H118.946C118.682 36.94 118.473 36.7974 118.348 36.5498L113.847 26.6077C113.786 26.4383 113.619 26.3304 113.451 26.3304H110.117C110.021 26.3304 109.921 26.3546 109.846 26.4293C109.771 26.5039 109.747 26.6037 109.747 26.7001V36.4682C109.747 36.6429 109.7 36.755 109.631 36.8239C109.562 36.8927 109.45 36.94 109.275 36.94H105.355C105.179 36.94 105.067 36.8927 104.998 36.8238C104.929 36.755 104.882 36.6429 104.882 36.4682V12.0662C104.882 11.8914 104.929 11.7792 104.998 11.7103C105.067 11.6414 105.18 11.5941 105.355 11.5941H115.649C117.978 11.5941 119.898 12.3599 121.235 13.6819C122.572 15.0038 123.338 16.8934 123.338 19.1635C123.338 22.4296 121.584 24.8573 118.756 25.8245C118.64 25.8557 118.555 25.9351 118.52 26.0396C118.486 26.1387 118.503 26.2461 118.558 26.3341L123.39 36.4232ZM109.747 16.127V22.2731C109.747 22.36 109.776 22.4518 109.84 22.5238C109.906 22.5986 110.003 22.6428 110.117 22.6428H114.879C115.937 22.6428 116.846 22.3029 117.491 21.7017C118.137 21.0997 118.51 20.2448 118.51 19.2366C118.51 18.2112 118.138 17.3385 117.492 16.7226C116.847 16.1073 115.939 15.7574 114.879 15.7574H110.117C110.021 15.7574 109.921 15.7816 109.846 15.8562C109.771 15.9309 109.747 16.0307 109.747 16.127Z" fill="white" stroke="#3091C5" stroke-width="0.3"/>
<path d="M126.485 28.1986V20.3696C126.485 17.6621 127.433 15.4071 129.086 13.8287C130.739 12.2498 133.108 11.3368 135.97 11.3368C138.85 11.3368 141.229 12.2499 142.886 13.8289C144.543 15.4072 145.491 17.6621 145.491 20.3696V28.1986C145.491 30.9433 144.542 33.2258 142.886 34.8223C141.228 36.4192 138.85 37.3413 135.97 37.3413C133.109 37.3413 130.739 36.4194 129.086 34.8224C127.434 33.2259 126.485 30.9433 126.485 28.1986ZM140.626 28.3816V20.333C140.626 18.8746 140.167 17.6553 139.348 16.7996C138.529 15.9432 137.361 15.4636 135.97 15.4636C134.597 15.4636 133.438 15.9436 132.624 16.7999C131.81 17.6555 131.351 18.8746 131.351 20.333V28.3816C131.351 29.8223 131.81 31.0323 132.624 31.8832C133.439 32.7347 134.597 33.2146 135.97 33.2146C137.361 33.2146 138.528 32.7351 139.348 31.8835C140.166 31.0325 140.626 29.8223 140.626 28.3816Z" fill="white" stroke="#3091C5" stroke-width="0.3"/>
<path d="M156.878 26.1556L156.878 26.1556L156.875 26.1546C154.968 25.4954 152.939 24.7428 151.385 23.5612C149.84 22.3856 148.77 20.7896 148.77 18.4305C148.77 16.226 149.675 14.4586 151.218 13.2389C152.765 12.0164 154.964 11.3368 157.559 11.3368C160.353 11.3368 162.727 12.1159 164.398 13.4666C166.067 14.8152 167.044 16.7391 167.044 19.0526V19.4184C167.044 19.5931 166.997 19.7053 166.928 19.7742C166.859 19.843 166.746 19.8903 166.571 19.8903H162.725C162.538 19.8903 162.413 19.856 162.34 19.8115C162.273 19.7708 162.251 19.7248 162.251 19.6745V19.3087C162.251 17.3031 160.514 15.4636 157.376 15.4636C156.185 15.4636 155.233 15.7235 154.575 16.2211C153.911 16.7229 153.563 17.4549 153.563 18.3574C153.563 18.8557 153.669 19.2816 153.9 19.6607C154.13 20.0379 154.479 20.3581 154.946 20.6562C155.875 21.2482 157.314 21.7752 159.341 22.4865C159.488 22.5397 159.637 22.5933 159.788 22.6474C161.357 23.2109 163.115 23.8421 164.528 24.8587C166.068 25.966 167.19 27.5247 167.19 29.9547C167.19 32.1419 166.303 33.9551 164.714 35.2247C163.122 36.4968 160.814 37.2315 157.962 37.2315C155.111 37.2315 152.766 36.4879 151.137 35.1836C149.511 33.8819 148.588 32.0139 148.588 29.7354V29.1133C148.588 28.9385 148.635 28.8263 148.704 28.7575C148.773 28.6886 148.885 28.6413 149.06 28.6413H152.907C153.088 28.6413 153.207 28.6827 153.277 28.7376C153.342 28.7887 153.38 28.8621 153.38 28.9671V29.4793C153.38 31.4638 155.356 33.1046 158.365 33.1046C159.781 33.1046 160.773 32.7512 161.413 32.1894C162.055 31.6261 162.325 30.8689 162.325 30.1011C162.325 29.6074 162.201 29.187 161.954 28.8163C161.708 28.4481 161.347 28.1372 160.885 27.8516C159.997 27.3024 158.7 26.8256 157.048 26.2182C156.992 26.1975 156.935 26.1766 156.878 26.1556Z" fill="white" stroke="#3091C5" stroke-width="0.3"/>
<path d="M178.405 26.1556L178.405 26.1556L180.917 22.3452L180.866 22.4862C180.866 22.4863 180.866 22.4864 180.867 22.4865C181.013 22.5397 181.162 22.5932 181.313 22.6474C182.883 23.2108 184.641 23.8421 186.054 24.8587C187.594 25.966 188.717 27.5247 188.717 29.9547C188.717 32.1419 187.83 33.9551 186.241 35.2247C184.649 36.4968 182.34 37.2315 179.489 37.2315C176.637 37.2315 174.292 36.4878 172.663 35.1836C171.037 33.882 170.114 32.0139 170.114 29.7354V29.1133C170.114 28.9385 170.161 28.8264 170.23 28.7575C170.299 28.6887 170.412 28.6413 170.587 28.6413H174.433C174.614 28.6413 174.733 28.6828 174.803 28.7376C174.868 28.7885 174.906 28.8619 174.906 28.9671V29.4793C174.906 31.4638 176.882 33.1046 179.891 33.1046C181.307 33.1046 182.299 32.7512 182.939 32.1894C183.581 31.6261 183.851 30.8689 183.851 30.1011C183.851 29.6074 183.727 29.187 183.48 28.8163C183.234 28.4481 182.873 28.1372 182.411 27.8516C181.523 27.3024 180.226 26.8255 178.575 26.2179C178.518 26.1973 178.462 26.1765 178.405 26.1556Z" fill="white" stroke="#3091C5" stroke-width="0.3"/>
<path d="M210.139 12.1006V15.32C210.139 15.4947 210.092 15.6068 210.023 15.6756C209.954 15.7445 209.842 15.7918 209.666 15.7918H203.329C203.232 15.7918 203.133 15.816 203.058 15.8907C202.983 15.9653 202.959 16.065 202.959 16.1613V36.466C202.959 36.6407 202.912 36.7528 202.843 36.8216C202.774 36.8905 202.661 36.9378 202.486 36.9378H198.567C198.392 36.9378 198.279 36.8905 198.21 36.8216C198.141 36.7527 198.094 36.6406 198.094 36.466V16.1613C198.094 16.0652 198.07 15.9655 197.995 15.8908C197.921 15.8161 197.821 15.7918 197.724 15.7918H191.57C191.395 15.7918 191.282 15.7445 191.213 15.6756C191.144 15.6068 191.097 15.4947 191.097 15.32V12.1006C191.097 11.9257 191.144 11.8136 191.213 11.7447C191.282 11.6758 191.395 11.6285 191.57 11.6285H209.666C209.842 11.6285 209.954 11.6758 210.023 11.7447C210.092 11.8136 210.139 11.9258 210.139 12.1006Z" fill="white" stroke="#3091C5" stroke-width="0.3"/>
<path d="M230.332 15.7552H218.536C218.449 15.7552 218.357 15.784 218.285 15.848C218.21 15.9145 218.166 16.011 218.166 16.1248V21.7222C218.166 21.8186 218.19 21.9184 218.265 21.993C218.34 22.0676 218.439 22.0918 218.536 22.0918H226.192C226.367 22.0918 226.48 22.1391 226.549 22.208C226.618 22.2768 226.665 22.389 226.665 22.5637V25.7466C226.665 25.9213 226.618 26.0334 226.549 26.1023C226.48 26.1711 226.367 26.2185 226.192 26.2185H218.536C218.449 26.2185 218.357 26.2473 218.285 26.3113C218.21 26.3778 218.166 26.4743 218.166 26.5881V32.4415C218.166 32.5285 218.195 32.6203 218.259 32.6922C218.326 32.7669 218.422 32.811 218.536 32.811H230.332C230.507 32.811 230.619 32.8583 230.688 32.9273C230.757 32.9962 230.805 33.1085 230.805 33.2831V36.466C230.805 36.6405 230.757 36.7527 230.688 36.8216C230.619 36.8905 230.507 36.9378 230.332 36.9378H213.774C213.599 36.9378 213.486 36.8905 213.417 36.8216C213.348 36.7527 213.3 36.6406 213.3 36.466V12.1006C213.3 11.9259 213.348 11.8137 213.417 11.7448C213.486 11.6758 213.599 11.6285 213.774 11.6285H230.332C230.507 11.6285 230.619 11.6758 230.688 11.7448C230.757 11.8137 230.805 11.9259 230.805 12.1006V15.2833C230.805 15.4579 230.757 15.57 230.688 15.6389C230.619 15.7079 230.507 15.7552 230.332 15.7552Z" fill="white" stroke="#3091C5" stroke-width="0.3"/>
<path d="M247.802 20.1457L247.802 20.1456L247.798 20.146C247.611 20.163 247.467 20.145 247.377 20.116C247.34 20.1042 247.316 20.0919 247.303 20.083V19.8929C247.303 18.5781 246.86 17.4678 246.072 16.686C245.285 15.9043 244.164 15.4626 242.829 15.4626C241.477 15.4626 240.348 15.904 239.555 16.6857C238.763 17.4676 238.32 18.5781 238.32 19.8929V28.7098C238.32 30.007 238.763 31.1084 239.556 31.8855C240.348 32.6624 241.477 33.1036 242.829 33.1036C244.164 33.1036 245.284 32.662 246.072 31.8851C246.86 31.1081 247.303 30.007 247.303 28.7098C247.303 28.6287 247.335 28.566 247.398 28.5221C247.466 28.4752 247.583 28.4407 247.762 28.457L247.762 28.4571L247.768 28.4574L251.684 28.64C251.867 28.6584 252.011 28.6758 252.107 28.7C252.135 28.7068 252.154 28.7133 252.168 28.7186V28.8562C252.168 31.3778 251.231 33.4672 249.603 34.9274C247.973 36.3891 245.639 37.2305 242.829 37.2305C239.985 37.2305 237.642 36.3533 236.013 34.8289C234.384 33.3055 233.455 31.1242 233.455 28.4903V20.0393C233.455 17.4056 234.384 15.2337 236.013 13.7194C237.642 12.2042 239.984 11.3358 242.829 11.3358C245.639 11.3358 247.974 12.1684 249.603 13.6165C251.232 15.0632 252.168 17.1341 252.168 19.6369C252.168 19.688 252.146 19.7366 252.078 19.7828C252.006 19.8319 251.887 19.8728 251.719 19.8898L247.802 20.1457Z" fill="white" stroke="#3091C5" stroke-width="0.3"/>
<path d="M269.67 11.6285H273.59C273.765 11.6285 273.877 11.6758 273.946 11.7447C274.015 11.8136 274.063 11.9257 274.063 12.1006V36.466C274.063 36.6407 274.015 36.7528 273.946 36.8216C273.877 36.8905 273.765 36.9378 273.59 36.9378H269.67C269.495 36.9378 269.383 36.8905 269.314 36.8216C269.245 36.7527 269.197 36.6405 269.197 36.466V26.5881C269.197 26.4922 269.173 26.3924 269.099 26.3176C269.024 26.2427 268.924 26.2185 268.828 26.2185H260.805C260.709 26.2185 260.609 26.2427 260.534 26.3174C260.459 26.392 260.435 26.4918 260.435 26.5881V36.466C260.435 36.6406 260.388 36.7528 260.319 36.8216C260.25 36.8905 260.137 36.9378 259.962 36.9378H256.043C255.868 36.9378 255.755 36.8905 255.686 36.8216C255.617 36.7527 255.569 36.6406 255.569 36.466V12.1006C255.569 11.9259 255.617 11.8137 255.686 11.7448C255.755 11.6758 255.868 11.6285 256.043 11.6285H259.962C260.137 11.6285 260.25 11.6758 260.319 11.7447C260.388 11.8136 260.435 11.9258 260.435 12.1006V21.7222C260.435 21.8185 260.459 21.9183 260.534 21.9929C260.609 22.0676 260.709 22.0918 260.805 22.0918H268.828C268.924 22.0918 269.024 22.0676 269.099 21.9927C269.173 21.9179 269.197 21.8181 269.197 21.7222V12.1006C269.197 11.9259 269.245 11.8137 269.314 11.7448C269.383 11.6758 269.495 11.6285 269.67 11.6285Z" fill="white" stroke="#3091C5" stroke-width="0.3"/>
<path d="M63.1114 39.9681L57.1259 43.3973L51.1133 39.9674L57.091 36.5281L63.1114 39.9681Z" fill="white" stroke="#3091C5" stroke-width="0.3"/>
<path d="M50.8176 47.5906L56.8235 51.0242L38.1212 61.6792L38.1342 54.7093L50.8176 47.5906Z" fill="white" stroke="#3091C5" stroke-width="0.3"/>
<path d="M44.515 14.2955L44.4405 14.2533L44.3663 14.296L19.0456 28.8595L0.325645 18.1795L31.7517 0.172932L37.5921 3.52777L12.5559 17.8157L12.3285 17.9455L12.5556 18.0761L18.9711 21.7629L19.0456 21.8057L19.1202 21.7632L44.3174 7.38333L63.1323 18.1793L31.7155 36.0879L25.7631 32.6923L44.5154 21.9068L44.5159 21.9066L50.9761 18.2174L51.2051 18.0867L50.9757 17.9567L44.515 14.2955Z" fill="white" stroke="#3091C5" stroke-width="0.3"/>
<path d="M25.6115 32.9535L31.579 36.3579V72.7417L0.173438 54.8243V18.4404L18.8959 29.1221L18.9095 58.3106L18.9096 58.398L18.9855 58.4411L25.401 62.0794L25.6251 62.2065L25.625 61.9489L25.6115 32.9535Z" fill="white" stroke="#3091C5" stroke-width="0.3"/>
<path fill-rule="evenodd" clip-rule="evenodd" d="M37.8941 3.52979L12.6304 17.9476L19.0459 21.6345L37.8941 10.8819V3.52979Z" fill="white"/>
<path d="M37.9114 39.9125L37.8358 39.9557V40.0428V54.5389L37.8226 54.5469V54.6316V61.9399V62.198L38.0468 62.0703L57.2026 51.157L57.431 51.0269L57.2028 50.8964L50.9568 47.326L50.9637 40.2283L57.0542 43.7026L57.1285 43.745L57.2028 43.7026L63.2798 40.2358L63.286 47.4275V47.4276V54.8226L31.8805 72.74V36.3561L63.286 18.4387V25.4359L37.9114 39.9125Z" fill="white" stroke="#3091C5" stroke-width="0.3"/>
<path fill-rule="evenodd" clip-rule="evenodd" d="M44.4429 21.7744L50.9036 18.085L44.4429 14.4238L19.0479 29.0304L19.0614 58.3061L25.4768 61.9444V54.57L25.4632 32.6906L44.4429 21.7744Z" fill="white"/>
</svg>
