<svg width="265" height="504" viewBox="0 0 265 504" fill="none" xmlns="http://www.w3.org/2000/svg">
<path d="M258.684 17.5347L240.28 37.001L240.28 83.5092L209.953 111.622L209.953 175.439L90.8386 295.481L90.8386 349.549L124.414 383.079L124.414 422.012" stroke="white" stroke-opacity="0.27" stroke-miterlimit="10"/>
<path d="M230.535 -0.000244141L230.535 77.0215L196.959 109.465L196.959 171.109L77.845 288.993L77.845 354.952" stroke="white" stroke-opacity="0.27" stroke-miterlimit="10"/>
<path d="M212.666 17.5347L212.666 79.178L185.052 105.133L185.052 168.399L165.56 187.054L154.189 187.054" stroke="white" stroke-opacity="0.27" stroke-miterlimit="10"/>
<path d="M144.443 269.787L130.636 269.787L102.21 299.798L102.21 346.03L136.322 381.718L136.322 406.862L149.316 418.218L149.316 463.639" stroke="white" stroke-opacity="0.27" stroke-miterlimit="10"/>
<path d="M154.19 -0.000244141L154.19 57.2794L136.322 73.5013L136.322 149.744" stroke="white" stroke-opacity="0.27" stroke-miterlimit="10"/>
<path d="M140.382 30.5134L140.382 46.7354L118.453 67.8239L118.453 227.61L63.2253 281.953L63.2253 422.013L95.7125 452.284" stroke="white" stroke-opacity="0.27" stroke-miterlimit="10"/>
<path d="M77.8439 26.4565L77.8439 45.1118L101.803 67.8224L101.803 200.842L89.8154 211.386" stroke="white" stroke-opacity="0.27" stroke-miterlimit="10"/>
<path d="M111.145 -0.000244141L111.145 219.774L51.0437 277.898L51.0437 431.195L81.0944 458.772L81.0944 497.705" stroke="white" stroke-opacity="0.27" stroke-miterlimit="10"/>
<path d="M51.0435 71.8789L51.0435 228.42L25.0537 255.187L25.0537 366.712L38.0486 377.662L38.0486 414.161" stroke="white" stroke-opacity="0.27" stroke-miterlimit="10"/>
<path d="M41.2969 30.5134L41.2969 225.988L13.6828 253.565L13.6828 440.117L33.1751 459.583" stroke="white" stroke-opacity="0.27" stroke-miterlimit="10"/>
<path d="M9.62194 -0.000245098L9.62194 17.5357L31.5508 39.4353L31.5508 222.743L4.74886 248.86L4.74885 452.283L25.0533 472.561L25.0533 487.16" stroke="white" stroke-opacity="0.27" stroke-miterlimit="10"/>
<path d="M-0.124512 58.9019L-0.124513 83.2347L-23.6777 102.296L-23.6777 197.599L-5.80977 215.443" stroke="white" stroke-opacity="0.27" stroke-miterlimit="10"/>
<path d="M-16.6768 264.417C-16.6768 269.067 -12.9023 272.836 -8.24634 272.836C-3.59035 272.836 0.184081 269.067 0.184082 264.417C0.184082 259.767 -3.59035 255.998 -8.24634 255.998C-12.9023 255.998 -16.6768 259.767 -16.6768 264.417Z" stroke="white" stroke-opacity="0.27" stroke-miterlimit="10"/>
<path d="M-8.55567 221.396C-8.55567 226.046 -4.78124 229.815 -0.125249 229.815C4.53074 229.815 8.30518 226.046 8.30518 221.396C8.30518 216.746 4.53074 212.977 -0.125248 212.977C-4.78124 212.977 -8.55567 216.746 -8.55567 221.396Z" stroke="white" stroke-opacity="0.27" stroke-miterlimit="10"/>
<path d="M-8.24415 50.5005C-8.24415 55.1503 -4.46972 58.9197 0.186275 58.9197C4.84227 58.9197 8.6167 55.1503 8.6167 50.5005C8.6167 45.8507 4.84227 42.0813 0.186275 42.0813C-4.46972 42.0813 -8.24415 45.8507 -8.24415 50.5005Z" stroke="white" stroke-opacity="0.27" stroke-miterlimit="10"/>
<path d="M38.1966 27.0956C38.1966 28.8058 39.5849 30.1923 41.2975 30.1923C43.0101 30.1923 44.3984 28.8058 44.3984 27.0956C44.3984 25.3853 43.0101 23.9988 41.2975 23.9988C39.5849 23.9988 38.1966 25.3853 38.1966 27.0956Z" stroke="white" stroke-opacity="0.27" stroke-miterlimit="10"/>
<path d="M74.6932 23.2245C74.6932 24.9348 76.0815 26.3212 77.7941 26.3212C79.5067 26.3212 80.895 24.9348 80.895 23.2245C80.895 21.5142 79.5067 20.1277 77.7941 20.1277C76.0815 20.1277 74.6932 21.5142 74.6932 23.2245Z" stroke="white" stroke-opacity="0.27" stroke-miterlimit="10"/>
<path d="M137.282 27.1366C137.282 28.8469 138.67 30.2333 140.382 30.2333C142.095 30.2333 143.483 28.8469 143.483 27.1366C143.483 25.4263 142.095 24.0398 140.382 24.0398C138.67 24.0398 137.282 25.4263 137.282 27.1366Z" stroke="white" stroke-opacity="0.27" stroke-miterlimit="10"/>
<path d="M147.483 187.153C147.483 188.863 148.872 190.25 150.584 190.25C152.297 190.25 153.685 188.863 153.685 187.153C153.685 185.443 152.297 184.056 150.584 184.056C148.872 184.056 147.483 185.443 147.483 187.153Z" stroke="white" stroke-opacity="0.27" stroke-miterlimit="10"/>
<path d="M217.624 319.739C217.624 321.449 219.013 322.835 220.725 322.835C222.438 322.835 223.826 321.449 223.826 319.739C223.826 318.028 222.438 316.642 220.725 316.642C219.013 316.642 217.624 318.028 217.624 319.739Z" stroke="white" stroke-opacity="0.27" stroke-miterlimit="10"/>
<path d="M171.885 449.03C171.885 450.741 173.273 452.127 174.986 452.127C176.698 452.127 178.086 450.741 178.086 449.03C178.086 447.32 176.698 445.934 174.986 445.934C173.273 445.934 171.885 447.32 171.885 449.03Z" stroke="white" stroke-opacity="0.27" stroke-miterlimit="10"/>
<path d="M84.2845 213.677C84.2845 215.387 85.6728 216.773 87.3854 216.773C89.098 216.773 90.4863 215.387 90.4863 213.677C90.4863 211.966 89.098 210.58 87.3854 210.58C85.6728 210.58 84.2845 211.966 84.2845 213.677Z" stroke="white" stroke-opacity="0.27" stroke-miterlimit="10"/>
<path d="M209.566 14.4669C209.566 16.1772 210.955 17.5637 212.667 17.5637C214.38 17.5637 215.768 16.1772 215.768 14.4669C215.768 12.7566 214.38 11.3701 212.667 11.3701C210.955 11.3701 209.566 12.7566 209.566 14.4669Z" stroke="white" stroke-opacity="0.27" stroke-miterlimit="10"/>
<path d="M33.12 460.645C33.12 462.355 34.5083 463.742 36.2209 463.742C37.9335 463.742 39.3218 462.355 39.3218 460.645C39.3218 458.935 37.9335 457.548 36.2209 457.548C34.5083 457.548 33.12 458.935 33.12 460.645Z" stroke="white" stroke-opacity="0.27" stroke-miterlimit="10"/>
<path d="M94.1415 454.451C94.1415 456.162 95.5298 457.548 97.2424 457.548C98.9549 457.548 100.343 456.162 100.343 454.451C100.343 452.741 98.9549 451.354 97.2424 451.354C95.5298 451.354 94.1415 452.741 94.1415 454.451Z" stroke="white" stroke-opacity="0.27" stroke-miterlimit="10"/>
<path d="M47.8485 68.9029C47.8485 70.6132 49.2368 71.9997 50.9494 71.9997C52.662 71.9997 54.0503 70.6132 54.0503 68.9029C54.0503 67.1926 52.662 65.8062 50.9494 65.8062C49.2368 65.8062 47.8485 67.1926 47.8485 68.9029Z" fill="white" fill-opacity="0.27" stroke="white" stroke-opacity="0.27" stroke-miterlimit="10"/>
<path d="M133.124 152.514C133.124 154.225 134.513 155.611 136.225 155.611C137.938 155.611 139.326 154.225 139.326 152.514C139.326 150.804 137.938 149.417 136.225 149.417C134.513 149.417 133.124 150.804 133.124 152.514Z" fill="white" fill-opacity="0.27" stroke="white" stroke-opacity="0.27" stroke-miterlimit="10"/>
<path d="M257.738 15.3123C257.738 17.0226 259.126 18.4091 260.839 18.4091C262.551 18.4091 263.939 17.0226 263.939 15.3123C263.939 13.602 262.551 12.2156 260.839 12.2156C259.126 12.2156 257.738 13.602 257.738 15.3123Z" fill="white" fill-opacity="0.27" stroke="white" stroke-opacity="0.27" stroke-miterlimit="10"/>
<path d="M144.752 269.418C144.752 271.128 146.14 272.515 147.853 272.515C149.565 272.515 150.954 271.128 150.954 269.418C150.954 267.708 149.565 266.321 147.853 266.321C146.14 266.321 144.752 267.708 144.752 269.418Z" fill="white" fill-opacity="0.27" stroke="white" stroke-opacity="0.27" stroke-miterlimit="10"/>
<path d="M120.721 423.482C120.721 425.192 122.109 426.578 123.822 426.578C125.535 426.578 126.923 425.192 126.923 423.482C126.923 421.771 125.535 420.385 123.822 420.385C122.109 420.385 120.721 421.771 120.721 423.482Z" fill="white" fill-opacity="0.27" stroke="white" stroke-opacity="0.27" stroke-miterlimit="10"/>
<path d="M145.622 466.733C145.622 468.444 147.01 469.83 148.723 469.83C150.435 469.83 151.824 468.444 151.824 466.733C151.824 465.023 150.435 463.636 148.723 463.636C147.01 463.636 145.622 465.023 145.622 466.733Z" fill="white" fill-opacity="0.27" stroke="white" stroke-opacity="0.27" stroke-miterlimit="10"/>
<path d="M74.9813 357.677C74.9813 359.387 76.3696 360.774 78.0822 360.774C79.7948 360.774 81.1831 359.387 81.1831 357.677C81.1831 355.967 79.7948 354.58 78.0822 354.58C76.3696 354.58 74.9813 355.967 74.9813 357.677Z" fill="white" fill-opacity="0.27" stroke="white" stroke-opacity="0.27" stroke-miterlimit="10"/>
<path d="M78.0824 500.903C78.0824 502.613 79.4707 503.999 81.1833 503.999C82.8959 503.999 84.2842 502.613 84.2842 500.903C84.2842 499.192 82.8959 497.806 81.1833 497.806C79.4707 497.806 78.0824 499.192 78.0824 500.903Z" fill="white" fill-opacity="0.27" stroke="white" stroke-opacity="0.27" stroke-miterlimit="10"/>
<path d="M34.6693 417.288C34.6693 418.998 36.0576 420.384 37.7702 420.384C39.4828 420.384 40.8711 418.998 40.8711 417.288C40.8711 415.577 39.4828 414.191 37.7702 414.191C36.0576 414.191 34.6693 415.577 34.6693 417.288Z" fill="white" fill-opacity="0.27" stroke="white" stroke-opacity="0.27" stroke-miterlimit="10"/>
<path d="M221.095 323.057L221.095 363.368L174.768 408.482L174.768 445.792" stroke="white" stroke-opacity="0.27" stroke-miterlimit="10"/>
<path d="M156.9 364.132C174.405 368.223 191.917 357.367 196.013 339.885C200.109 322.404 189.239 304.915 171.734 300.825C154.228 296.734 136.717 307.59 132.621 325.072C128.525 342.554 139.395 360.042 156.9 364.132Z" stroke="white" stroke-opacity="0.27" stroke-width="2" stroke-linecap="round" stroke-linejoin="round"/>
<path d="M159.405 353.258C170.881 355.949 182.368 348.839 185.061 337.378C187.755 325.917 180.636 314.445 169.16 311.755C157.684 309.065 146.197 316.175 143.503 327.636C140.809 339.096 147.928 350.568 159.405 353.258Z" stroke="white" stroke-opacity="0.27" stroke-width="2" stroke-linecap="round" stroke-linejoin="round"/>
<path d="M164.392 339.251C163.036 339.254 161.709 338.856 160.58 338.105C159.45 337.355 158.569 336.287 158.048 335.036C157.526 333.786 157.388 332.409 157.651 331.08C157.914 329.751 158.565 328.53 159.523 327.571C160.481 326.612 161.703 325.958 163.033 325.693C164.363 325.427 165.742 325.562 166.996 326.079C168.249 326.597 169.321 327.474 170.075 328.601C170.828 329.727 171.231 331.051 171.231 332.405C171.231 334.218 170.511 335.957 169.229 337.24C167.947 338.524 166.208 339.247 164.392 339.251Z" stroke="white" stroke-opacity="0.27" stroke-width="2" stroke-linecap="round" stroke-linejoin="round"/>
</svg>
