<svg width="27" height="26" viewBox="0 0 27 26" fill="none" xmlns="http://www.w3.org/2000/svg">
<g clip-path="url(#clip0_617_6612)">
<path d="M18.7983 0H9.04834C4.56171 0 0.92334 3.63838 0.92334 8.125V17.875C0.92334 22.3616 4.56171 26 9.04834 26H18.7983C23.285 26 26.9233 22.3616 26.9233 17.875V8.125C26.9233 3.63838 23.285 0 18.7983 0ZM24.4858 17.875C24.4858 21.0112 21.9346 23.5625 18.7983 23.5625H9.04834C5.91209 23.5625 3.36084 21.0112 3.36084 17.875V8.125C3.36084 4.98875 5.91209 2.4375 9.04834 2.4375H18.7983C21.9346 2.4375 24.4858 4.98875 24.4858 8.125V17.875Z" fill="white"/>
<path d="M13.9233 6.5C10.3337 6.5 7.42334 9.41037 7.42334 13C7.42334 16.5896 10.3337 19.5 13.9233 19.5C17.513 19.5 20.4233 16.5896 20.4233 13C20.4233 9.41037 17.513 6.5 13.9233 6.5ZM13.9233 17.0625C11.6841 17.0625 9.86084 15.2393 9.86084 13C9.86084 10.7591 11.6841 8.9375 13.9233 8.9375C16.1626 8.9375 17.9858 10.7591 17.9858 13C17.9858 15.2393 16.1626 17.0625 13.9233 17.0625Z" fill="white"/>
<path d="M20.911 6.87874C21.3894 6.87874 21.7772 6.49096 21.7772 6.01261C21.7772 5.53426 21.3894 5.14648 20.911 5.14648C20.4327 5.14648 20.0449 5.53426 20.0449 6.01261C20.0449 6.49096 20.4327 6.87874 20.911 6.87874Z" fill="white"/>
</g>
<defs>
<clipPath id="clip0_617_6612">
<rect width="26" height="26" fill="white" transform="translate(0.92334)"/>
</clipPath>
</defs>
</svg>
