<svg width="25" height="14" viewBox="0 0 25 14" fill="none" xmlns="http://www.w3.org/2000/svg">
<path d="M1.14238 6.73487L8.42044 1.10987C8.60999 0.963376 8.91704 0.963376 9.10654 1.10987C9.29609 1.25637 9.29609 1.49367 9.10654 1.64013L2.65671 6.62501L23.8048 6.62501C24.073 6.62501 24.29 6.79274 24.29 7.00002C24.29 7.2073 24.073 7.37503 23.8048 7.37503L2.65671 7.37503L9.10654 12.3599C9.29609 12.5064 9.29609 12.7437 9.10654 12.8901C9.01179 12.9634 8.8876 13 8.76347 13C8.63933 13 8.51519 12.9634 8.4204 12.8901L1.14233 7.26514C0.952827 7.11867 0.952829 6.88137 1.14238 6.73487Z" fill="#1B1C20" stroke="#1B1C20"/>
</svg>
