<svg width="176" height="49" viewBox="0 0 176 49" fill="none" xmlns="http://www.w3.org/2000/svg">
<path fill-rule="evenodd" clip-rule="evenodd" d="M54.8042 37.3554V37.0074C54.8042 36.877 54.8911 36.7898 55.0215 36.7898H55.9494C56.08 36.7898 56.1668 36.877 56.1668 37.0074V37.2829C56.1668 38.2398 57.0513 38.9791 58.501 38.9791C59.8784 38.9791 60.5162 38.3267 60.5162 37.4567C60.5162 36.5434 59.7334 36.1373 58.037 35.4562C56.3844 34.8181 54.9346 34.2382 54.9346 32.4696C54.9346 30.7878 56.2251 29.8018 58.2403 29.8018C60.4149 29.8018 61.8211 30.9616 61.8211 32.687V32.9046C61.8211 33.0349 61.7341 33.1218 61.6037 33.1218H60.6613C60.5308 33.1218 60.4439 33.0493 60.4439 32.9335V32.7595C60.4439 31.7881 59.6464 31.0053 58.1821 31.0053C56.9788 31.0053 56.2974 31.5127 56.2974 32.4406C56.2974 33.4119 57.0513 33.7308 58.762 34.3832C60.3715 35.0066 61.9081 35.6447 61.9081 37.4133C61.9081 39.066 60.5887 40.1825 58.3997 40.1825C56.2103 40.1825 54.8042 39.066 54.8042 37.3554V37.3554Z" fill="white"/>
<path fill-rule="evenodd" clip-rule="evenodd" d="M63.6616 36.7174V33.2668C63.6616 31.1935 65.0968 29.8018 67.2425 29.8018C69.4026 29.8018 70.8379 31.1935 70.8379 33.2668V36.7174C70.8379 38.805 69.4026 40.1969 67.2425 40.1969C65.0968 40.1969 63.6616 38.805 63.6616 36.7174ZM69.4461 36.7755V33.2524C69.4461 31.9042 68.5618 31.0053 67.2425 31.0053C65.9375 31.0053 65.0534 31.9042 65.0534 33.2524V36.7755C65.0534 38.1092 65.9375 38.9936 67.2425 38.9936C68.5618 38.9936 69.4461 38.1092 69.4461 36.7755Z" fill="white"/>
<path fill-rule="evenodd" clip-rule="evenodd" d="M72.9111 39.8489V30.1353C72.9111 30.0048 72.998 29.918 73.1285 29.918H74.0854C74.216 29.918 74.3029 30.0048 74.3029 30.1353V38.7906C74.3029 38.8341 74.3318 38.8631 74.3755 38.8631H79.2903C79.4207 38.8631 79.5075 38.9501 79.5075 39.0805V39.8489C79.5075 39.9795 79.4207 40.0665 79.2903 40.0665H73.1285C72.998 40.0665 72.9111 39.9795 72.9111 39.8489V39.8489Z" fill="white"/>
<path fill-rule="evenodd" clip-rule="evenodd" d="M80.9727 36.848V30.1353C80.9727 30.0048 81.0595 29.918 81.1901 29.918H82.147C82.2775 29.918 82.3644 30.0048 82.3644 30.1353V36.877C82.3644 38.1237 83.2344 38.9791 84.539 38.9791C85.8295 38.9791 86.6993 38.1237 86.6993 36.877V30.1353C86.6993 30.0048 86.7864 29.918 86.9169 29.918H87.8738C88.004 29.918 88.0913 30.0048 88.0913 30.1353V36.848C88.0913 38.8485 86.6702 40.1825 84.539 40.1825C82.4079 40.1825 80.9727 38.8485 80.9727 36.848Z" fill="white"/>
<path fill-rule="evenodd" clip-rule="evenodd" d="M97.1023 30.1353V30.9181C97.1023 31.0488 97.0154 31.1357 96.8848 31.1357H94.188C94.1444 31.1357 94.1156 31.1647 94.1156 31.2082V39.8489C94.1156 39.9795 94.0287 40.0665 93.898 40.0665H92.9413C92.8107 40.0665 92.7237 39.9795 92.7237 39.8489V31.2082C92.7237 31.1647 92.6949 31.1357 92.6513 31.1357H90.0852C89.9546 31.1357 89.8677 31.0488 89.8677 30.9181V30.1353C89.8677 30.0048 89.9546 29.918 90.0852 29.918H96.8848C97.0154 29.918 97.1023 30.0048 97.1023 30.1353V30.1353Z" fill="white"/>
<path fill-rule="evenodd" clip-rule="evenodd" d="M98.9141 39.8489V30.1353C98.9141 30.0048 99.001 29.918 99.1316 29.918H100.089C100.219 29.918 100.306 30.0048 100.306 30.1353V39.8489C100.306 39.9795 100.219 40.0665 100.089 40.0665H99.1316C99.001 40.0665 98.9141 39.9795 98.9141 39.8489Z" fill="white"/>
<path fill-rule="evenodd" clip-rule="evenodd" d="M102.357 36.7174V33.2668C102.357 31.1935 103.792 29.8018 105.938 29.8018C108.098 29.8018 109.534 31.1935 109.534 33.2668V36.7174C109.534 38.805 108.098 40.1969 105.938 40.1969C103.792 40.1969 102.357 38.805 102.357 36.7174ZM108.142 36.7755V33.2524C108.142 31.9042 107.257 31.0053 105.938 31.0053C104.633 31.0053 103.749 31.9042 103.749 33.2524V36.7755C103.749 38.1092 104.633 38.9936 105.938 38.9936C107.257 38.9936 108.142 38.1092 108.142 36.7755Z" fill="white"/>
<path fill-rule="evenodd" clip-rule="evenodd" d="M111.606 39.8489V30.1353C111.606 30.0048 111.694 29.918 111.824 29.918H112.752C112.868 29.918 112.955 29.9614 113.013 30.0627L117.449 37.2393C117.478 37.2972 117.536 37.2829 117.536 37.2103V30.1353C117.536 30.0048 117.623 29.918 117.754 29.918H118.711C118.841 29.918 118.928 30.0048 118.928 30.1353V39.8489C118.928 39.9795 118.841 40.0665 118.711 40.0665H117.768C117.653 40.0665 117.565 40.0229 117.508 39.9214L113.071 32.7016C113.042 32.6434 112.984 32.6578 112.984 32.7304L112.998 39.8489C112.998 39.9795 112.911 40.0665 112.781 40.0665H111.824C111.694 40.0665 111.606 39.9795 111.606 39.8489V39.8489Z" fill="white"/>
<path fill-rule="evenodd" clip-rule="evenodd" d="M120.831 37.3554V37.0074C120.831 36.877 120.918 36.7898 121.048 36.7898H121.976C122.107 36.7898 122.194 36.877 122.194 37.0074V37.2829C122.194 38.2398 123.078 38.9791 124.528 38.9791C125.905 38.9791 126.543 38.3267 126.543 37.4567C126.543 36.5434 125.76 36.1373 124.064 35.4562C122.411 34.8181 120.961 34.2382 120.961 32.4696C120.961 30.7878 122.252 29.8018 124.267 29.8018C126.442 29.8018 127.848 30.9616 127.848 32.687V32.9046C127.848 33.0349 127.761 33.1218 127.63 33.1218H126.688C126.557 33.1218 126.47 33.0493 126.47 32.9335V32.7595C126.47 31.7881 125.673 31.0053 124.209 31.0053C123.005 31.0053 122.324 31.5127 122.324 32.4406C122.324 33.4119 123.078 33.7308 124.789 34.3832C126.398 35.0066 127.935 35.6447 127.935 37.4133C127.935 39.066 126.615 40.1825 124.426 40.1825C122.237 40.1825 120.831 39.066 120.831 37.3554V37.3554Z" fill="white"/>
<path fill-rule="evenodd" clip-rule="evenodd" d="M132.733 36.848V33.1365C132.733 31.1212 134.154 29.8018 136.27 29.8018C138.387 29.8018 139.793 31.1357 139.793 32.948V33.0349C139.793 33.1655 139.706 33.2524 139.576 33.2524H138.619C138.488 33.2524 138.402 33.1944 138.402 33.1075V32.977C138.402 31.8316 137.561 31.0196 136.27 31.0196C134.98 31.0196 134.125 31.8316 134.125 33.0931V36.8914C134.125 38.1526 135.023 38.9647 136.328 38.9647C137.59 38.9647 138.402 38.2688 138.402 37.0944V35.9926C138.402 35.9491 138.373 35.9201 138.329 35.9201H136.459C136.328 35.9201 136.241 35.8329 136.241 35.7026V34.9488C136.241 34.8181 136.328 34.7313 136.459 34.7313H139.576C139.706 34.7313 139.793 34.8181 139.793 34.9488V36.7174C139.793 38.9792 138.387 40.1825 136.27 40.1825C134.154 40.1825 132.733 38.8485 132.733 36.848V36.848Z" fill="white"/>
<path fill-rule="evenodd" clip-rule="evenodd" d="M147.372 39.907L145.372 35.6155C145.357 35.5865 145.314 35.5575 145.285 35.5575H143.24C143.197 35.5575 143.168 35.5865 143.168 35.6299V39.8488C143.168 39.9795 143.081 40.0665 142.951 40.0665H141.993C141.863 40.0665 141.776 39.9795 141.776 39.8488V30.1209C141.776 29.9903 141.863 29.9033 141.993 29.9033H145.821C147.575 29.9033 148.735 31.0632 148.735 32.7884C148.735 34.1368 147.967 35.1226 146.749 35.4416C146.705 35.4562 146.691 35.4851 146.705 35.5286L148.764 39.8053C148.837 39.9649 148.764 40.0665 148.605 40.0665H147.619C147.503 40.0665 147.416 40.0083 147.372 39.907V39.907ZM143.168 31.1791V34.3976C143.168 34.4411 143.197 34.4701 143.24 34.4701H145.647C146.662 34.4701 147.343 33.7889 147.343 32.8029C147.343 31.7881 146.662 31.1066 145.647 31.1066H143.24C143.197 31.1066 143.168 31.1357 143.168 31.1791V31.1791Z" fill="white"/>
<path fill-rule="evenodd" clip-rule="evenodd" d="M150.513 36.7174V33.2668C150.513 31.1935 151.948 29.8018 154.094 29.8018C156.254 29.8018 157.689 31.1935 157.689 33.2668V36.7174C157.689 38.805 156.254 40.1969 154.094 40.1969C151.948 40.1969 150.513 38.805 150.513 36.7174ZM156.297 36.7755V33.2524C156.297 31.9042 155.413 31.0053 154.094 31.0053C152.789 31.0053 151.904 31.9042 151.904 33.2524V36.7755C151.904 38.1092 152.789 38.9936 154.094 38.9936C155.413 38.9936 156.297 38.1092 156.297 36.7755V36.7755Z" fill="white"/>
<path fill-rule="evenodd" clip-rule="evenodd" d="M159.679 36.848V30.1353C159.679 30.0048 159.766 29.918 159.896 29.918H160.853C160.984 29.918 161.071 30.0048 161.071 30.1353V36.877C161.071 38.1237 161.94 38.9791 163.245 38.9791C164.536 38.9791 165.405 38.1237 165.405 36.877V30.1353C165.405 30.0048 165.492 29.918 165.623 29.918H166.58C166.71 29.918 166.797 30.0048 166.797 30.1353V36.848C166.797 38.8485 165.377 40.1825 163.245 40.1825C161.114 40.1825 159.679 38.8485 159.679 36.848V36.848Z" fill="white"/>
<path fill-rule="evenodd" clip-rule="evenodd" d="M176 32.8463C176 34.6007 174.782 35.746 172.97 35.746H170.432C170.389 35.746 170.36 35.775 170.36 35.8185V39.8488C170.36 39.9795 170.273 40.0665 170.142 40.0665H169.186C169.055 40.0665 168.968 39.9795 168.968 39.8488V30.1209C168.968 29.9903 169.055 29.9033 169.186 29.9033H173.028C174.811 29.9033 176 31.0778 176 32.8463V32.8463ZM174.608 32.8755C174.608 31.8171 173.898 31.1066 172.839 31.1066H170.432C170.389 31.1066 170.36 31.1357 170.36 31.1791V34.5427C170.36 34.5861 170.389 34.6152 170.432 34.6152H172.839C173.898 34.6152 174.608 33.9193 174.608 32.8755Z" fill="white"/>
<path fill-rule="evenodd" clip-rule="evenodd" d="M54.3066 19.0679V13.7087C54.3066 10.3216 56.6964 8.09424 60.3387 8.09424C63.9347 8.09424 66.3475 10.2287 66.3475 13.4535C66.3475 13.5928 66.2083 13.6856 65.9764 13.7087L63.4939 13.871C63.2388 13.8943 63.0764 13.8248 63.0764 13.7551V13.6159C63.0764 11.9919 61.986 10.9015 60.3387 10.9015C58.6683 10.9015 57.5779 11.9919 57.5779 13.6159V19.2071C57.5779 20.8079 58.6683 21.8983 60.3387 21.8983C61.986 21.8983 63.0764 20.8079 63.0764 19.2071C63.0764 19.0447 63.2156 18.9288 63.4707 18.952L65.9531 19.0679C66.1851 19.0912 66.3475 19.1144 66.3475 19.1839V19.2999C66.3475 22.548 63.9347 24.7056 60.3387 24.7056C56.6964 24.7056 54.3066 22.4552 54.3066 19.0679V19.0679Z" fill="white"/>
<path fill-rule="evenodd" clip-rule="evenodd" d="M76.8506 24.2186L73.997 17.9081C73.9737 17.8386 73.9042 17.7921 73.8346 17.7921H71.7234C71.6305 17.7921 71.5842 17.8386 71.5842 17.9314V24.1258C71.5842 24.381 71.4451 24.5202 71.1898 24.5202H68.7073C68.4521 24.5202 68.313 24.381 68.313 24.1258V8.65134C68.313 8.39611 68.4521 8.25684 68.7073 8.25684H75.2266C78.2194 8.25684 80.1914 10.2289 80.1914 13.1521C80.1914 15.2634 79.0547 16.841 77.2219 17.4673C77.1291 17.4906 77.1058 17.5833 77.1522 17.6529L80.2147 24.0562C80.3538 24.3114 80.2379 24.5202 79.9362 24.5202H77.3146C77.1058 24.5202 76.9434 24.4041 76.8506 24.2186ZM71.5842 11.2265V15.1241C71.5842 15.1937 71.6305 15.2634 71.7234 15.2634H74.7394C76.0387 15.2634 76.9434 14.4282 76.9434 13.1985C76.9434 11.9456 76.0387 11.0872 74.7394 11.0872H71.7234C71.6305 11.0872 71.5842 11.1337 71.5842 11.2265V11.2265Z" fill="white"/>
<path fill-rule="evenodd" clip-rule="evenodd" d="M81.9946 18.8823V13.9175C81.9946 10.4375 84.4306 8.09424 88.0961 8.09424C91.7849 8.09424 94.2208 10.4375 94.2208 13.9175V18.8823C94.2208 22.4087 91.7849 24.7752 88.0961 24.7752C84.4306 24.7752 81.9946 22.4087 81.9946 18.8823ZM90.9497 18.9983V13.8943C90.9497 12.0848 89.8131 10.9015 88.0961 10.9015C86.4027 10.9015 85.2659 12.0848 85.2659 13.8943V18.9983C85.2659 20.7848 86.4027 21.968 88.0961 21.968C89.8131 21.968 90.9497 20.7848 90.9497 18.9983Z" fill="white"/>
<path fill-rule="evenodd" clip-rule="evenodd" d="M95.9917 19.8568V19.4623C95.9917 19.2071 96.1309 19.0679 96.3859 19.0679H98.8221C99.077 19.0679 99.2166 19.1839 99.2166 19.3696V19.6944C99.2166 20.8776 100.4 21.8983 102.279 21.8983C104.042 21.8983 104.692 21.0168 104.692 20.0887C104.692 18.9055 103.509 18.4879 101.304 17.676C98.8915 16.8408 96.1074 15.7504 96.1074 12.6878C96.1074 9.83422 98.4508 8.09424 101.768 8.09424C105.342 8.09424 107.87 10.0896 107.87 13.0823V13.3143C107.87 13.5695 107.731 13.7087 107.476 13.7087H105.04C104.785 13.7087 104.645 13.6159 104.645 13.4767V13.2447C104.645 12.0383 103.601 10.9015 101.652 10.9015C100.168 10.9015 99.3325 11.5511 99.3325 12.6415C99.3325 13.848 100.353 14.2654 102.929 15.1703C105.04 15.936 107.963 16.8408 107.963 19.9959C107.963 22.8263 105.666 24.7056 102.024 24.7056C98.3815 24.7056 95.9917 22.8031 95.9917 19.8568V19.8568Z" fill="white"/>
<path fill-rule="evenodd" clip-rule="evenodd" d="M109.625 19.8568V19.4623C109.625 19.2071 109.764 19.0679 110.019 19.0679H112.455C112.71 19.0679 112.849 19.1839 112.849 19.3696V19.6944C112.849 20.8776 114.033 21.8983 115.912 21.8983C117.675 21.8983 118.324 21.0168 118.324 20.0887C118.324 18.9055 117.141 18.4879 114.938 17.676C112.525 16.8408 109.741 15.7504 109.741 12.6878C109.741 9.83422 112.084 8.09424 115.402 8.09424C118.974 8.09424 121.503 10.0896 121.503 13.0823V13.3143C121.503 13.5695 121.364 13.7087 121.108 13.7087H118.672C118.417 13.7087 118.278 13.6159 118.278 13.4767V13.2447C118.278 12.0383 117.234 10.9015 115.285 10.9015C113.801 10.9015 112.965 11.5511 112.965 12.6415C112.965 13.848 113.986 14.2654 116.561 15.1703C118.672 15.936 121.596 16.8408 121.596 19.9959C121.596 22.8263 119.299 24.7056 115.657 24.7056C112.014 24.7056 109.625 22.8031 109.625 19.8568Z" fill="white"/>
<path fill-rule="evenodd" clip-rule="evenodd" d="M135.162 8.67526V10.7168C135.162 10.972 135.023 11.1112 134.767 11.1112H130.754C130.661 11.1112 130.615 11.1577 130.615 11.2503V24.1265C130.615 24.3817 130.475 24.5209 130.22 24.5209H127.738C127.483 24.5209 127.343 24.3817 127.343 24.1265V11.2503C127.343 11.1577 127.297 11.1112 127.204 11.1112H123.307C123.051 11.1112 122.912 10.972 122.912 10.7168V8.67526C122.912 8.41993 123.051 8.28076 123.307 8.28076H134.767C135.023 8.28076 135.162 8.41993 135.162 8.67526V8.67526Z" fill="white"/>
<path fill-rule="evenodd" clip-rule="evenodd" d="M147.855 11.087H140.385C140.315 11.087 140.246 11.1334 140.246 11.2262V14.7758C140.246 14.8686 140.292 14.9151 140.385 14.9151H145.233C145.489 14.9151 145.628 15.0542 145.628 15.3094V17.3279C145.628 17.5831 145.489 17.7222 145.233 17.7222H140.385C140.315 17.7222 140.246 17.7687 140.246 17.8615V21.5734C140.246 21.6431 140.292 21.7126 140.385 21.7126H147.855C148.11 21.7126 148.25 21.8519 148.25 22.1071V24.1255C148.25 24.3807 148.11 24.5199 147.855 24.5199H137.369C137.114 24.5199 136.974 24.3807 136.974 24.1255V8.67428C136.974 8.41895 137.114 8.27979 137.369 8.27979H147.855C148.11 8.27979 148.25 8.41895 148.25 8.67428V10.6926C148.25 10.9478 148.11 11.087 147.855 11.087V11.087Z" fill="white"/>
<path fill-rule="evenodd" clip-rule="evenodd" d="M149.737 19.0679V13.7087C149.737 10.3216 152.127 8.09424 155.769 8.09424C159.366 8.09424 161.778 10.2287 161.778 13.4535C161.778 13.5928 161.639 13.6856 161.407 13.7087L158.925 13.871C158.669 13.8943 158.507 13.8248 158.507 13.7551V13.6159C158.507 11.9919 157.417 10.9015 155.769 10.9015C154.099 10.9015 153.009 11.9919 153.009 13.6159V19.2071C153.009 20.8079 154.099 21.8983 155.769 21.8983C157.417 21.8983 158.507 20.8079 158.507 19.2071C158.507 19.0447 158.646 18.9288 158.902 18.952L161.384 19.0679C161.616 19.0912 161.778 19.1144 161.778 19.1839V19.2999C161.778 22.548 159.366 24.7056 155.769 24.7056C152.127 24.7056 149.737 22.4552 149.737 19.0679V19.0679Z" fill="white"/>
<path fill-rule="evenodd" clip-rule="evenodd" d="M172.768 8.27979H175.25C175.505 8.27979 175.644 8.41895 175.644 8.67428V24.1255C175.644 24.3807 175.505 24.5199 175.25 24.5199H172.768C172.513 24.5199 172.373 24.3807 172.373 24.1255V17.8615C172.373 17.7687 172.327 17.7222 172.234 17.7222H167.153C167.061 17.7222 167.014 17.7687 167.014 17.8615V24.1255C167.014 24.3807 166.875 24.5199 166.62 24.5199H164.137C163.882 24.5199 163.743 24.3807 163.743 24.1255V8.67428C163.743 8.41895 163.882 8.27979 164.137 8.27979H166.62C166.875 8.27979 167.014 8.41895 167.014 8.67428V14.7758C167.014 14.8686 167.061 14.9151 167.153 14.9151H172.234C172.327 14.9151 172.373 14.8686 172.373 14.7758V8.67428C172.373 8.41895 172.513 8.27979 172.768 8.27979V8.27979Z" fill="white"/>
<path fill-rule="evenodd" clip-rule="evenodd" d="M34.1646 26.3462L38.1636 28.6305L42.1454 26.3462L38.1412 24.0552L34.1646 26.3462Z" fill="white" stroke="#1B1918" stroke-width="1.4173"/>
<path fill-rule="evenodd" clip-rule="evenodd" d="M38.155 33.3533L34.1686 31.0713L26.0409 35.6392V35.6489L26.0322 40.2787L38.1636 33.358L38.155 33.3529V33.3531V33.3533Z" fill="white" stroke="#1B1918" stroke-width="1.4173"/>
<path fill-rule="evenodd" clip-rule="evenodd" d="M30.1298 10.1482L34.2214 12.4699L30.1298 14.8096L18.1099 21.7321L22.0707 23.9946L42.1584 12.5287L30.0516 5.57253L14.047 14.7185L9.98396 12.3804L25.9836 3.2374L22.0937 1L2 12.5287L14.047 19.4108L30.1298 10.1482V10.1482Z" fill="white" stroke="#1B1918" stroke-width="1.4173"/>
<path fill-rule="evenodd" clip-rule="evenodd" d="M22.0705 23.9947L18.1099 21.7322L18.1186 40.2835L14.0556 37.9762L14.047 19.4111L2 12.5288V35.8206L22.0792 47.2914V23.9996L22.0707 23.9945H22.0705V23.9947Z" fill="white" stroke="#1B1918" stroke-width="1.4173"/>
<path fill-rule="evenodd" clip-rule="evenodd" d="M25.984 3.2373L9.98438 12.3803L14.0474 14.7184L25.984 7.89962V3.2373V3.2373Z" fill="white"/>
<path fill-rule="evenodd" clip-rule="evenodd" d="M26.0411 35.6392V26.3928L42.1588 17.1851V12.5288L22.0796 23.9996V47.2914L42.1588 35.8206V31.0758L42.1583 31.0762L42.1547 26.3515L38.1642 28.6311L34.1652 26.3468L34.1606 31.0664L34.1691 31.0714V31.0713L38.1641 33.3582L26.0327 40.2788V35.6442L26.0414 35.6391L26.0411 35.6392Z" fill="white"/>
<path fill-rule="evenodd" clip-rule="evenodd" d="M30.1301 14.8093L34.2217 12.4697L30.1301 10.1479L14.0474 19.4107L14.0559 37.9758L18.1189 40.2831V35.6066L18.1102 21.7318L30.1301 14.8093V14.8093Z" fill="white"/>
</svg>
