<svg width="23" height="17" viewBox="0 0 23 17" fill="none" xmlns="http://www.w3.org/2000/svg">
<path d="M21.2029 16.0373H1.84792C1.49341 16.0369 1.15353 15.8961 0.902853 15.6457C0.652173 15.3954 0.511159 15.056 0.510742 14.7019V2.33509C0.511159 1.98107 0.652183 1.64168 0.902872 1.39139C1.15356 1.14109 1.49344 1.00033 1.84792 1H21.2022C21.5568 1.00017 21.8969 1.14085 22.1477 1.39116C22.3985 1.64148 22.5396 1.98096 22.54 2.33509V14.7019C22.5396 15.056 22.3986 15.3954 22.1479 15.6457C21.8972 15.8961 21.5574 16.0369 21.2029 16.0373ZM1.84792 1.62857C1.66031 1.62874 1.48043 1.70322 1.34775 1.83567C1.21506 1.96812 1.1404 2.14773 1.14015 2.33509V14.7019C1.1404 14.8893 1.21505 15.0689 1.34773 15.2014C1.48041 15.3339 1.66028 15.4085 1.84792 15.4087H21.2022C21.39 15.4087 21.57 15.3342 21.7028 15.2017C21.8356 15.0691 21.9104 14.8894 21.9106 14.7019V2.33509C21.9104 2.14773 21.8357 1.96812 21.703 1.83567C21.5703 1.70322 21.3905 1.62874 21.2029 1.62857H1.84792Z" fill="white" stroke="white" stroke-width="0.5"/>
<path d="M11.5253 9.36716C11.2111 9.36777 10.9052 9.26628 10.6538 9.07801L0.992094 1.81425C0.925322 1.76424 0.881179 1.68978 0.869375 1.60727C0.857571 1.52475 0.879074 1.44093 0.929153 1.37425C0.979232 1.30757 1.05378 1.26348 1.13641 1.2517C1.21904 1.23991 1.30297 1.26138 1.36974 1.31139L11.0312 8.57547C11.1735 8.68167 11.3463 8.73906 11.524 8.73906C11.7016 8.73906 11.8745 8.68167 12.0168 8.57547L21.6798 1.31139C21.7129 1.28663 21.7505 1.26861 21.7905 1.25837C21.8306 1.24813 21.8722 1.24586 21.9132 1.2517C21.9541 1.25753 21.9934 1.27136 22.029 1.29239C22.0645 1.31342 22.0956 1.34123 22.1204 1.37425C22.1452 1.40727 22.1632 1.44484 22.1735 1.48482C22.1838 1.5248 22.186 1.56641 22.1802 1.60727C22.1743 1.64813 22.1605 1.68743 22.1394 1.72295C22.1184 1.75846 22.0905 1.78949 22.0575 1.81425L12.396 9.07833C12.1448 9.26635 11.8392 9.36772 11.5253 9.36716Z" fill="white" stroke="white" stroke-width="0.5"/>
<path d="M1.04048 15.6419C0.976009 15.642 0.913079 15.6222 0.860205 15.5854C0.807332 15.5485 0.767065 15.4964 0.744853 15.4359C0.72264 15.3755 0.719554 15.3097 0.736011 15.2474C0.752468 15.1852 0.787674 15.1295 0.836867 15.0879L9.51648 7.74394C9.58017 7.69005 9.66268 7.66364 9.74587 7.6705C9.82905 7.67737 9.9061 7.71696 9.96006 7.78055C10.014 7.84415 10.0405 7.92655 10.0336 8.00963C10.0267 8.09271 9.98708 8.16965 9.9234 8.22354L1.24378 15.5675C1.18707 15.6157 1.11497 15.6421 1.04048 15.6419Z" fill="white" stroke="white" stroke-width="0.5"/>
<path d="M22.0108 15.6419C21.9363 15.6421 21.8642 15.6157 21.8075 15.5675L13.1279 8.22354C13.0963 8.19686 13.0704 8.16423 13.0515 8.12753C13.0326 8.09083 13.0211 8.05076 13.0177 8.00963C13.0143 7.96849 13.019 7.92709 13.0316 7.88779C13.0442 7.84848 13.0645 7.81204 13.0912 7.78055C13.1179 7.74906 13.1506 7.72314 13.1873 7.70425C13.2241 7.68537 13.2642 7.6739 13.3054 7.6705C13.3466 7.6671 13.3881 7.67184 13.4274 7.68444C13.4668 7.69704 13.5033 7.71726 13.5348 7.74394L22.2144 15.0879C22.2636 15.1295 22.2988 15.1852 22.3153 15.2474C22.3317 15.3097 22.3286 15.3755 22.3064 15.4359C22.2842 15.4964 22.2439 15.5485 22.1911 15.5854C22.1382 15.6222 22.0753 15.642 22.0108 15.6419Z" fill="white" stroke="white" stroke-width="0.5"/>
</svg>
