<svg width="18" height="13" viewBox="0 0 18 13" fill="none" xmlns="http://www.w3.org/2000/svg">
<path d="M16.0288 11.9217H1.9712C1.71371 11.9214 1.46686 11.8191 1.28479 11.6373C1.10272 11.4554 1.0003 11.2089 1 10.9518V1.96968C1.0003 1.71256 1.10273 1.46606 1.28481 1.28427C1.46688 1.10247 1.71374 1.00024 1.9712 1H16.0283C16.2859 1.00012 16.5329 1.1023 16.715 1.2841C16.8972 1.46591 16.9997 1.71248 17 1.96968V10.9518C16.9997 11.2089 16.8973 11.4554 16.7152 11.6373C16.5331 11.8191 16.2863 11.9214 16.0288 11.9217ZM1.9712 1.45653C1.83494 1.45666 1.70429 1.51075 1.60792 1.60695C1.51155 1.70315 1.45732 1.8336 1.45714 1.96968V10.9518C1.45732 11.0879 1.51154 11.2183 1.60791 11.3146C1.70427 11.4108 1.83492 11.465 1.9712 11.4651H16.0283C16.1647 11.4651 16.2955 11.411 16.3919 11.3147C16.4884 11.2185 16.5427 11.0879 16.5429 10.9518V1.96968C16.5427 1.8336 16.4885 1.70315 16.3921 1.60695C16.2957 1.51075 16.1651 1.45666 16.0288 1.45653H1.9712Z" fill="#1B1C20" stroke="#1B1C20" stroke-width="0.5"/>
<path d="M8.99953 7.07726C8.77133 7.07771 8.54918 7.004 8.36662 6.86726L1.34924 1.59155C1.30075 1.55522 1.26868 1.50115 1.26011 1.44121C1.25154 1.38128 1.26716 1.3204 1.30353 1.27197C1.3399 1.22354 1.39405 1.19152 1.45406 1.18296C1.51407 1.1744 1.57503 1.18999 1.62353 1.22632L8.64068 6.50226C8.74403 6.57939 8.86959 6.62107 8.99862 6.62107C9.12764 6.62107 9.25321 6.57939 9.35656 6.50226L16.3749 1.22632C16.3989 1.20833 16.4262 1.19525 16.4553 1.18781C16.4843 1.18037 16.5146 1.17872 16.5443 1.18296C16.574 1.1872 16.6026 1.19724 16.6285 1.21251C16.6543 1.22779 16.6768 1.24799 16.6949 1.27197C16.7129 1.29595 16.726 1.32324 16.7334 1.35228C16.7409 1.38132 16.7425 1.41154 16.7383 1.44121C16.734 1.47089 16.724 1.49944 16.7087 1.52523C16.6934 1.55103 16.6732 1.57356 16.6491 1.59155L9.63199 6.86749C9.44953 7.00405 9.22755 7.07767 8.99953 7.07726Z" fill="#1B1C20" stroke="#1B1C20" stroke-width="0.5"/>
<path d="M1.38496 11.6347C1.33813 11.6347 1.29243 11.6204 1.25402 11.5936C1.21562 11.5669 1.18638 11.529 1.17024 11.4851C1.15411 11.4412 1.15187 11.3934 1.16382 11.3482C1.17577 11.303 1.20134 11.2625 1.23707 11.2323L7.54113 5.89835C7.58738 5.85921 7.64731 5.84003 7.70773 5.84501C7.76815 5.85 7.82411 5.87875 7.8633 5.92495C7.90249 5.97114 7.9217 6.03099 7.91671 6.09133C7.91172 6.15166 7.88293 6.20755 7.83667 6.24669L1.53262 11.5806C1.49143 11.6156 1.43906 11.6348 1.38496 11.6347Z" fill="#1B1C20" stroke="#1B1C20" stroke-width="0.5"/>
<path d="M16.6146 11.6347C16.5605 11.6348 16.5081 11.6156 16.4669 11.5806L10.1628 6.24669C10.1399 6.22731 10.1211 6.20361 10.1074 6.17696C10.0936 6.1503 10.0853 6.1212 10.0828 6.09132C10.0803 6.06145 10.0838 6.03138 10.0929 6.00283C10.1021 5.97428 10.1168 5.94782 10.1362 5.92495C10.1556 5.90207 10.1794 5.88324 10.206 5.86953C10.2327 5.85581 10.2619 5.84748 10.2918 5.84501C10.3217 5.84254 10.3518 5.84598 10.3804 5.85514C10.409 5.86429 10.4355 5.87897 10.4584 5.89835L16.7624 11.2323C16.7982 11.2625 16.8237 11.303 16.8357 11.3482C16.8477 11.3934 16.8454 11.4412 16.8293 11.4851C16.8131 11.529 16.7839 11.5669 16.7455 11.5936C16.7071 11.6204 16.6614 11.6347 16.6146 11.6347Z" fill="#1B1C20" stroke="#1B1C20" stroke-width="0.5"/>
</svg>
