<svg width="55" height="55" viewBox="0 0 55 55" fill="none" xmlns="http://www.w3.org/2000/svg">
<path d="M2.27883 22.6905C1.15463 22.8729 0.284979 23.7742 0.142994 24.9043C-0.0457761 26.6159 -0.0476765 28.3429 0.137474 30.055C0.266518 31.2025 1.1415 32.125 2.28064 32.3145L5.19744 32.7921C5.75742 35.1772 6.70272 37.4551 7.99596 39.5359L6.27911 41.9339C5.59498 42.8615 5.61154 44.131 6.31947 45.0405C6.86588 45.709 7.4473 46.3482 8.06112 46.9555C8.62399 47.5192 9.24632 48.0857 9.99344 48.7136C10.8958 49.4075 12.1478 49.422 13.0661 48.7493L15.4759 47.0205C17.5547 48.3136 19.8303 49.2592 22.2134 49.8199L22.6919 52.7414C22.8738 53.8659 23.7753 54.736 24.9057 54.8781C25.4282 54.9367 25.9589 54.978 26.4933 55H26.5712C27.0489 54.9996 27.5084 54.8158 27.8545 54.4866C28.2144 54.1428 28.4175 53.6663 28.4164 53.1685V45.8224C28.4109 44.8408 27.6361 44.0361 26.6554 43.9937C17.8818 43.5356 11.0028 36.2881 11.0028 27.5025C11.0028 18.7169 17.8818 11.4694 26.6554 11.0114C27.6377 10.9683 28.4129 10.1613 28.4164 9.17805V1.83564C28.4178 1.3373 28.2143 0.860392 27.8535 0.516606C27.4933 0.163227 27.0017 -0.0232807 26.4977 0.00232902C25.9643 0.0234141 25.4353 0.061874 24.8926 0.116894C23.7629 0.262499 22.8658 1.13794 22.6926 2.26368L22.2151 5.18229C19.832 5.74353 17.5564 6.68938 15.4776 7.98272L13.0678 6.25754C12.141 5.57983 10.8768 5.60001 9.97226 6.30704C9.30767 6.85109 8.67159 7.42898 8.06655 8.03864C7.44296 8.64821 6.85592 9.29406 6.30843 9.97277C5.60901 10.8763 5.59109 12.1333 6.26445 13.0564L7.99234 15.4691C6.70018 17.5497 5.75615 19.8274 5.19744 22.2121L2.27883 22.6905ZM6.85574 23.202C7.38866 20.6129 8.41106 18.1495 9.86792 15.9439C10.0767 15.6267 10.0683 15.2137 9.84684 14.9053L7.75597 11.9858C7.56268 11.7307 7.55707 11.3798 7.74222 11.1186C8.24464 10.4959 8.78371 9.90363 9.35645 9.34483C9.91281 8.78286 10.4971 8.24922 11.1072 7.74616C11.3698 7.54599 11.7338 7.54599 11.9964 7.74616L14.9114 9.83802C15.2202 10.0589 15.6332 10.0665 15.95 9.8573C18.1537 8.39989 20.6158 7.37713 23.2036 6.84421C23.5756 6.76756 23.8618 6.4693 23.9232 6.09438L24.4997 2.5643C24.5411 2.24766 24.7843 1.99519 25.0992 1.94188C25.5841 1.89148 26.0755 1.85573 26.5833 1.83555L26.5631 9.17886C16.804 9.6773 9.14849 17.7382 9.15392 27.5101C9.15926 37.282 16.8236 45.3345 26.5833 45.8222L26.5705 53.1683C26.0782 53.1481 25.5906 53.1097 25.1094 53.0556C24.793 53.0093 24.545 52.7599 24.5007 52.4432L23.9232 48.9113C23.8618 48.5364 23.5757 48.2382 23.2036 48.1615C20.6158 47.6281 18.1537 46.6051 15.95 45.1475C15.633 44.9384 15.2201 44.9465 14.9114 45.1677L11.9937 47.2613C11.7449 47.4548 11.3992 47.4641 11.1403 47.2842C10.4665 46.7168 9.88258 46.1843 9.35645 45.6589C8.79439 45.1036 8.26111 44.5199 7.75869 43.91C7.56096 43.6459 7.56096 43.2831 7.75869 43.019L9.84774 40.1022C10.0689 39.7936 10.077 39.3806 9.86792 39.0636C8.41097 36.8584 7.38857 34.3952 6.85574 31.8064C6.77918 31.4347 6.48137 31.1485 6.10681 31.0868L2.57764 30.5084C2.24915 30.4541 1.99694 30.1877 1.96075 29.8566C1.78908 28.28 1.79089 26.6892 1.96627 25.1129C2.01187 24.7963 2.26091 24.5476 2.57764 24.5025L6.10582 23.9249C6.48182 23.8634 6.78036 23.5755 6.85574 23.202Z" fill="white"/>
<path d="M52.2495 24.752C51.0883 24.7568 50.0553 25.4905 49.6681 26.5853H28.4164V23.8353H43.0829C44.6017 23.8353 45.8328 22.6042 45.8328 21.0854V16.3335C47.0956 15.8871 47.853 14.5958 47.6265 13.2758C47.4 11.9557 46.2554 10.9908 44.9161 10.9908C43.5768 10.9908 42.4322 11.9557 42.2057 13.2758C41.9792 14.5958 42.7367 15.8871 43.9994 16.3335V21.0854C43.9994 21.5916 43.589 22.0021 43.0827 22.0021H28.4164V19.2521H38.4996C39.0058 19.2521 39.4162 18.8417 39.4162 18.3354C39.4162 17.8291 39.0058 17.4187 38.4996 17.4187H28.4164V15.5854H33.9163C35.4351 15.5854 36.6663 14.3542 36.6663 12.8353V7.16689C37.9291 6.72048 38.6865 5.42922 38.46 4.10919C38.2335 2.78916 37.0889 1.82422 35.7496 1.82422C34.4103 1.82422 33.2658 2.78916 33.0393 4.10919C32.8127 5.42922 33.5702 6.72048 34.8329 7.16689V12.8355C34.8329 13.3417 34.4225 13.7522 33.9162 13.7522H28.1743C27.8589 13.1661 27.2295 12.819 26.5656 12.8649C18.8409 13.3542 12.8262 19.762 12.8262 27.5021C12.8262 35.2423 18.8409 41.65 26.5656 42.1393H26.6728C27.299 42.1446 27.8768 41.8031 28.1743 41.2521H33.9162C34.4225 41.2521 34.8329 41.6624 34.8329 42.1688V47.8374C33.5702 48.2838 32.8127 49.575 33.0393 50.8951C33.2658 52.2151 34.4103 53.18 35.7496 53.18C37.0889 53.18 38.2335 52.2151 38.46 50.8951C38.6865 49.575 37.9291 48.2838 36.6663 47.8374V42.1688C36.6663 40.65 35.4352 39.4187 33.9163 39.4187H28.4164V37.5854H38.4996C39.0058 37.5854 39.4162 37.175 39.4162 36.6688C39.4162 36.1626 39.0058 35.7521 38.4996 35.7521H28.4164V33.0022H43.0829C43.5891 33.0022 43.9996 33.4126 43.9996 33.9188V38.6707C42.7369 39.1171 41.9794 40.4084 42.2059 41.7284C42.4324 43.0484 43.577 44.0134 44.9163 44.0134C46.2556 44.0134 47.4002 43.0484 47.6267 41.7284C47.8532 40.4084 47.0958 39.1171 45.833 38.6707V33.9188C45.833 32.4 44.6018 31.1689 43.0831 31.1689H28.4164V28.4187H49.6681C50.1365 29.7337 51.5172 30.4878 52.8769 30.1713C54.2365 29.8547 55.1421 28.5683 54.9816 27.1816C54.821 25.7951 53.6453 24.7496 52.2495 24.752ZM44.9162 12.8355C45.4224 12.8355 45.8328 13.2459 45.8328 13.7522C45.8328 14.2585 45.4224 14.6689 44.9162 14.6689C44.41 14.6689 43.9996 14.2585 43.9996 13.7522C43.9996 13.2459 44.4099 12.8355 44.9162 12.8355ZM35.7496 3.66894C36.2559 3.66894 36.6663 4.07933 36.6663 4.58564C36.6663 5.09195 36.2559 5.50225 35.7496 5.50225C35.2433 5.50225 34.833 5.09186 34.833 4.58564C34.833 4.07942 35.2433 3.66894 35.7496 3.66894ZM35.7496 51.3352C35.2434 51.3352 34.833 50.9248 34.833 50.4184C34.833 49.9121 35.2434 49.5017 35.7496 49.5017C36.2559 49.5017 36.6663 49.9121 36.6663 50.4184C36.6663 50.9248 36.2559 51.3352 35.7496 51.3352ZM44.9162 42.1686C44.41 42.1686 43.9996 41.7582 43.9996 41.2519C43.9996 40.7456 44.41 40.3353 44.9162 40.3353C45.4224 40.3353 45.8328 40.7456 45.8328 41.2519C45.8328 41.7581 45.4224 42.1686 44.9162 42.1686ZM14.6665 27.502C14.6741 20.7732 19.8719 15.1901 26.5831 14.7019V40.3023C19.8719 39.814 14.6741 34.2308 14.6665 27.502ZM52.2495 28.4187C51.7433 28.4187 51.3328 28.0083 51.3328 27.502C51.3328 26.9956 51.7432 26.5853 52.2495 26.5853C52.7558 26.5853 53.1662 26.9957 53.1662 27.502C53.1662 28.0082 52.7557 28.4187 52.2495 28.4187Z" fill="white"/>
</svg>
