<svg width="18" height="18" viewBox="0 0 18 18" fill="none" xmlns="http://www.w3.org/2000/svg">
<path d="M16.9888 13.5936C16.8907 13.1169 16.5746 12.691 16.1217 12.4247C15.283 11.9319 14.4169 11.4605 13.5792 11.0046L13.004 10.6911C12.2766 10.2941 11.7766 10.3678 11.4847 10.4998C11.2069 10.6258 10.8421 10.9292 10.6821 11.6599C10.6798 11.671 10.6781 11.6839 10.6768 11.6974C10.6261 11.8865 10.4864 11.963 10.4056 11.992C10.2207 12.0581 10.0021 12.0146 9.82279 11.8746C8.42427 10.7786 7.2139 9.58028 6.12231 8.21083C5.98292 8.0365 5.9394 7.82326 6.00582 7.64046C6.03658 7.55484 6.12068 7.40476 6.35333 7.35527C6.35365 7.35527 6.35365 7.35527 6.35398 7.35511C6.36511 7.35381 6.37656 7.35202 6.38768 7.34958C7.1321 7.18582 7.42823 6.80558 7.5457 6.51534C7.67822 6.18865 7.72272 5.63 7.18314 4.82376C6.77707 4.21937 6.43807 3.55898 6.10988 2.92024C5.96067 2.62968 5.81146 2.33945 5.65603 2.05312C5.34779 1.48503 4.93681 1.13132 4.46725 1.03007C4.0422 0.937611 3.59392 1.05953 3.16854 1.37988C2.74675 1.70039 2.2988 2.05264 1.87734 2.45746C0.968665 3.33776 0.76121 4.451 1.27657 5.67671C3.46597 10.8848 7.23681 14.6098 12.4847 16.7483C12.8963 16.9167 13.2959 17 13.678 17C14.3691 17 15.0039 16.7272 15.5517 16.1874C15.999 15.7495 16.3907 15.2456 16.7254 14.8041C16.9839 14.4535 17.0772 14.0235 16.9888 13.5936ZM16.1878 14.4063C15.8701 14.8253 15.4964 15.3061 15.0808 15.7128C14.4169 16.3671 13.6512 16.5048 12.7389 16.1314C7.66153 14.0624 4.01308 10.4583 1.89501 5.41936C1.48305 4.44009 1.63029 3.62751 2.34362 2.93619C2.73956 2.55594 3.16952 2.21818 3.57461 1.91053C3.78926 1.74857 3.99443 1.66685 4.1865 1.66685C4.23362 1.66685 4.27976 1.67174 4.32524 1.68167C4.59749 1.74043 4.85402 1.97841 5.06639 2.36989C5.21952 2.65182 5.36612 2.93749 5.51304 3.22366C5.85007 3.87949 6.19823 4.55762 6.6259 5.19375C6.92006 5.63374 7.02608 6.01448 6.92432 6.26613C6.82517 6.51062 6.52642 6.63124 6.27905 6.69033C6.2316 6.69358 6.19986 6.70482 6.19528 6.70775C5.80753 6.78881 5.50878 7.04632 5.37528 7.41436C5.22967 7.8161 5.31278 8.26894 5.59746 8.62543C6.72177 10.0357 7.96813 11.2699 9.40854 12.3989C9.77142 12.6822 10.2289 12.764 10.633 12.6192C10.9978 12.4881 11.2547 12.1948 11.3378 11.8144C11.3404 11.8027 11.3421 11.7887 11.3434 11.7742C11.4013 11.5243 11.5207 11.2162 11.7625 11.1066C12.0374 10.9824 12.4143 11.1296 12.6817 11.2756L13.2576 11.5894C14.0903 12.0428 14.9519 12.5116 15.7807 12.9986C16.071 13.1694 16.2719 13.435 16.3321 13.7274C16.3825 13.9705 16.3301 14.2129 16.1878 14.4063Z" fill="#1B1C20" stroke="#1B1C20" stroke-width="0.5"/>
</svg>
