<svg width="21" height="22" viewBox="0 0 21 22" fill="none" xmlns="http://www.w3.org/2000/svg">
<path d="M20.4728 16.7419C20.3501 16.1462 19.955 15.6137 19.3889 15.2808C18.3406 14.6649 17.2579 14.0757 16.2109 13.5057L15.4918 13.1138C14.5825 12.6176 13.9576 12.7097 13.5927 12.8748C13.2455 13.0322 12.7894 13.4115 12.5894 14.3249C12.5865 14.3387 12.5845 14.3548 12.5828 14.3717C12.5194 14.6081 12.3448 14.7038 12.2438 14.74C12.0127 14.8226 11.7394 14.7683 11.5153 14.5933C9.76716 13.2233 8.25419 11.7253 6.8897 10.0135C6.71546 9.79562 6.66106 9.52907 6.74409 9.30058C6.78254 9.19355 6.88766 9.00595 7.17847 8.94409C7.17888 8.94409 7.17888 8.94409 7.17929 8.94389C7.1932 8.94226 7.20751 8.94002 7.22142 8.93697C8.15194 8.73228 8.5221 8.25697 8.66894 7.89418C8.83459 7.48581 8.89022 6.7875 8.21575 5.7797C7.70815 5.02421 7.28441 4.19872 6.87416 3.4003C6.68765 3.0371 6.50114 2.67431 6.30685 2.31641C5.92156 1.60629 5.40783 1.16415 4.82088 1.03759C4.28957 0.922014 3.72921 1.07441 3.19749 1.47485C2.67026 1.87548 2.11031 2.3158 1.58349 2.82183C0.447647 3.92221 0.188329 5.31375 0.832535 6.84589C3.56928 13.356 8.28283 18.0122 14.8427 20.6854C15.3572 20.8958 15.8566 21 16.3344 21C17.1982 21 17.9917 20.659 18.6764 19.9843C19.2356 19.4369 19.7251 18.807 20.1436 18.2552C20.4667 17.8169 20.5833 17.2793 20.4728 16.7419ZM19.4716 17.7579C19.0744 18.2816 18.6073 18.8827 18.0878 19.3909C17.2579 20.2089 16.3008 20.381 15.1605 19.9143C8.81373 17.3279 4.25317 12.8229 1.60558 6.5242C1.09063 5.30012 1.27468 4.28439 2.16635 3.42024C2.66126 2.94493 3.19871 2.52273 3.70508 2.13816C3.9734 1.93571 4.22985 1.83357 4.46995 1.83357C4.52884 1.83357 4.58652 1.83967 4.64337 1.85208C4.98367 1.92554 5.30435 2.22301 5.5698 2.71236C5.76122 3.06478 5.94446 3.42187 6.12811 3.77957C6.5494 4.59936 6.9846 5.44702 7.51919 6.24219C7.88689 6.79218 8.01942 7.2681 7.89221 7.58266C7.76828 7.88828 7.39484 8.03905 7.08563 8.11291C7.02632 8.11698 6.98664 8.13102 6.98092 8.13468C6.49623 8.23601 6.12279 8.5579 5.95591 9.01795C5.7739 9.52012 5.87779 10.0862 6.23364 10.5318C7.63903 12.2947 9.19698 13.8374 10.9975 15.2487C11.4511 15.6027 12.0229 15.7051 12.528 15.524C12.9841 15.3602 13.3052 14.9935 13.4091 14.518C13.4123 14.5033 13.4144 14.4859 13.416 14.4677C13.4884 14.1554 13.6377 13.7702 13.94 13.6333C14.2836 13.4781 14.7547 13.662 15.0889 13.8445L15.8088 14.2368C16.8497 14.8035 17.9267 15.3895 18.9627 15.9983C19.3255 16.2117 19.5767 16.5438 19.6519 16.9092C19.7149 17.2132 19.6495 17.5162 19.4716 17.7579Z" fill="white" stroke="white" stroke-width="0.5"/>
</svg>
