<svg width="25" height="14" viewBox="0 0 25 14" fill="none" xmlns="http://www.w3.org/2000/svg">
<path d="M23.8576 6.73487L16.5796 1.10987C16.39 0.963376 16.083 0.963376 15.8935 1.10987C15.7039 1.25637 15.7039 1.49367 15.8935 1.64013L22.3433 6.62501L1.19518 6.62501C0.926984 6.62501 0.709961 6.79274 0.709961 7.00002C0.709961 7.2073 0.926984 7.37503 1.19518 7.37503L22.3433 7.37503L15.8935 12.3599C15.7039 12.5064 15.7039 12.7437 15.8935 12.8901C15.9882 12.9634 16.1124 13 16.2365 13C16.3607 13 16.4848 12.9634 16.5796 12.8901L23.8577 7.26514C24.0472 7.11867 24.0472 6.88137 23.8576 6.73487Z" fill="#1B1C20" stroke="#1B1C20"/>
</svg>
