<svg width="40" height="40" viewBox="0 0 40 40" fill="none" xmlns="http://www.w3.org/2000/svg">
<path d="M31.2944 19.8671L23.9702 14.1124C23.7795 13.9625 23.4705 13.9625 23.2798 14.1124C23.089 14.2623 23.089 14.5051 23.2798 14.6549L29.7705 19.7547L8.4883 19.7547C8.2184 19.7547 8 19.9263 8 20.1384C8 20.3505 8.2184 20.5221 8.4883 20.5221L29.7705 20.5221L23.2798 25.6219C23.089 25.7718 23.089 26.0145 23.2798 26.1644C23.3751 26.2393 23.5001 26.2768 23.625 26.2768C23.7499 26.2768 23.8749 26.2393 23.9703 26.1644L31.2945 20.4096C31.4852 20.2598 31.4852 20.017 31.2944 19.8671Z" fill="#3091C5" stroke="#3091C5" stroke-width="0.6"/>
<rect x="0.5" y="0.5" width="39" height="39" rx="19.5" stroke="#3091C5"/>
</svg>
