<svg width="27" height="26" viewBox="0 0 27 26" fill="none" xmlns="http://www.w3.org/2000/svg">
<path fill-rule="evenodd" clip-rule="evenodd" d="M13.9201 0H13.9266C21.0945 0 26.9233 5.83213 26.9233 13C26.9233 20.1679 21.0945 26 13.9266 26C11.2827 26 8.83059 25.2135 6.77496 23.8518L1.77809 25.4491L3.39821 20.6196C1.83984 18.4795 0.92334 15.8438 0.92334 13C0.92334 5.8305 6.75222 0 13.9201 0ZM18.9329 20.1897C19.9258 19.9752 21.1705 19.2407 21.4842 18.355C21.7978 17.4678 21.7978 16.7122 21.7068 16.5513C21.6333 16.4236 21.4595 16.34 21.2002 16.2151C21.1326 16.1826 21.0593 16.1473 20.9804 16.1077C20.5985 15.9175 18.7412 14.9994 18.3902 14.8775C18.0457 14.7475 17.7174 14.793 17.4574 15.1603C17.4079 15.2295 17.3586 15.2989 17.3095 15.3679C16.9959 15.8091 16.6933 16.2346 16.4418 16.5058C16.2127 16.7495 15.8389 16.7804 15.5253 16.6504C15.4911 16.6362 15.4519 16.6203 15.408 16.6026C14.9114 16.402 13.81 15.9572 12.4768 14.7703C11.3523 13.7693 10.5885 12.5229 10.3675 12.1492C10.1505 11.7742 10.3377 11.5544 10.5107 11.3512C10.5139 11.3474 10.5171 11.3437 10.5203 11.3399C10.6318 11.2019 10.74 11.087 10.8488 10.9715C10.927 10.8885 11.0056 10.8051 11.0858 10.7127C11.0977 10.6989 11.1093 10.6856 11.1206 10.6726C11.2909 10.4768 11.3923 10.3601 11.5067 10.1163C11.6367 9.86441 11.544 9.60441 11.4514 9.41266C11.3877 9.27837 10.994 8.32323 10.6561 7.50327C10.5114 7.15237 10.377 6.82624 10.283 6.59978C10.0312 5.99691 9.8394 5.97416 9.45753 5.95791C9.44582 5.95732 9.434 5.95672 9.42206 5.95612C9.30135 5.95001 9.16842 5.94328 9.02203 5.94328C8.52478 5.94328 8.0064 6.08953 7.69278 6.40966C7.68182 6.42085 7.67039 6.43247 7.65854 6.44453C7.25731 6.85258 6.36353 7.76157 6.36353 9.57353C6.36353 11.389 7.65167 13.146 7.89001 13.4711C7.89658 13.48 7.90235 13.4879 7.90728 13.4947C7.92162 13.5135 7.94865 13.5526 7.98799 13.6096C8.47464 14.3144 10.845 17.747 14.3797 19.2114C17.3664 20.4497 18.2537 20.3343 18.9329 20.1897Z" fill="#FAFAFA"/>
</svg>
